<?xml version="1.0" standalone="no"?>
<!DOCTYPE svg PUBLIC "-//W3C//DTD SVG 1.1//EN" "http://www.w3.org/Graphics/SVG/1.1/DTD/svg11.dtd" >
<svg xmlns="http://www.w3.org/2000/svg">
<metadata>Generated by IcoMoon</metadata>
<defs>
<font id="lager" horiz-adv-x="1024">
<font-face units-per-em="1024" ascent="960" descent="-64" />
<missing-glyph horiz-adv-x="1024" />
<glyph unicode="&#x20;" horiz-adv-x="512" d="" />
<glyph unicode="&#xe900;" glyph-name="tent" d="M779.686 17.92l-249.201 520.847c-0.123 0.287-0.492 0.41-0.655 0.655-3.441 6.472-9.994 10.977-17.818 10.977s-14.418-4.506-17.859-10.977c-0.164-0.246-0.492-0.369-0.614-0.655l-249.201-520.847h-149.75l417.423 834.847 417.423-834.847h-149.75zM532.492 17.92v421.765l201.769-421.765h-201.769zM491.532 17.92h-201.769l201.769 421.765v-421.765zM1003.532 17.92h-28.303l-444.908 889.815c-6.963 13.844-29.655 13.844-36.618 0l-444.908-889.815h-28.303c-11.346 0-20.48-9.175-20.48-20.48s9.134-20.48 20.48-20.48h983.040c11.305 0 20.48 9.175 20.48 20.48s-9.175 20.48-20.48 20.48v0z" />
<glyph unicode="&#xe901;" glyph-name="ping-pong" d="M634.888 386.56c-33.874 0-61.44 27.566-61.44 61.44s27.566 61.44 61.44 61.44c33.874 0 61.44-27.566 61.44-61.44s-27.566-61.44-61.44-61.44zM634.888 550.4c-56.443 0-102.4-45.957-102.4-102.4s45.957-102.4 102.4-102.4c56.443 0 102.4 45.957 102.4 102.4s-45.957 102.4-102.4 102.4zM853.082 328.028c-161.669-161.587-265.953-120.709-310.559-103.301-22.282 8.724-43.95 14.418-65.044 17.9l-170.844 170.803c-3.441 21.094-9.175 42.803-17.9 65.085-17.408 44.564-58.286 148.931 103.301 310.559 85.975 85.934 183.828 129.475 277.34 129.475 79.258 0 155.443-31.252 218.685-94.495 137.871-137.871 123.781-337.224-34.98-496.026zM293.118 188.068c-56.197-56.197-144.466-166.339-180.060-211.026l-72.090 72.253c44.769 35.348 154.911 123.617 211.108 179.814 34.202 34.161 52.961 76.513 57.057 123.945l107.971-107.971c-47.432-4.055-89.784-22.815-123.986-57.016zM917.021 853.012c-155.197 155.238-377.815 141.107-553.943-34.98-161.792-161.833-141.681-279.798-112.476-354.427 22.815-58.409 36.618-141.476-27.484-205.537-54.682-54.682-163.348-141.722-207.544-176.62-9.134-7.25-14.787-18.104-15.524-29.737-0.655-11.715 3.727-23.265 12.042-31.621l72.049-72.008c7.741-7.782 18.268-12.083 29.164-12.083 0.819 0 1.597 0 2.417 0.041 11.633 0.737 22.487 6.39 29.737 15.524 34.898 44.196 121.938 152.863 176.62 207.544 64.061 64.102 147.128 50.381 205.537 27.484 74.629-29.204 192.594-49.357 354.427 112.476 176.087 176.169 190.177 398.746 34.98 553.943z" />
<glyph unicode="&#xe902;" glyph-name="tennis-ball" d="M531.407-22.061c-11.1 265.175-224.297 478.372-489.472 489.472 10.035 244.204 206.438 440.648 450.683 450.642 11.059-265.134 224.297-478.372 489.431-489.472-9.994-244.204-206.438-440.607-450.642-450.642zM42.058 426.41c242.483-11.059 437.289-205.865 448.389-448.348-242.483 11.059-437.33 205.865-448.389 448.348zM981.967 469.582c-242.483 11.059-437.33 205.865-448.389 448.348 242.483-11.059 437.289-205.865 448.389-448.348zM511.992 959.996c-282.296 0-512-229.663-512-512s229.704-512 512-512c282.337 0 512 229.663 512 512s-229.663 512-512 512z" />
<glyph unicode="&#xe903;" glyph-name="bicycle" d="M839.688 140.8c-79.053 0-143.36 64.307-143.36 143.36 0 55.951 32.563 104.038 79.421 127.631l44.524-134.103c2.867-8.561 10.854-14.008 19.415-14.008 2.13 0 4.301 0.328 6.472 1.024 10.732 3.604 16.548 15.196 12.943 25.928l-44.769 134.308c8.274 1.516 16.671 2.58 25.354 2.58 79.053 0 143.36-64.307 143.36-143.36s-64.307-143.36-143.36-143.36v0zM478.093 368.66l-51.159 153.559 231.424 86.794-180.265-240.353zM317.080 411.423l74.015 88.842 52.756-158.351-81.756-11.674c-8.028 30.966-23.511 58.819-45.015 81.183v0zM184.328 140.8c-79.053 0-143.36 64.307-143.36 143.36s64.307 143.36 143.36 143.36c27.484 0 52.92-8.151 74.793-21.627l-90.522-108.626c-5.448-6.513-6.308-15.647-2.171-23.060 3.645-6.554 10.527-10.527 17.9-10.527 0.942 0 1.925 0.082 2.908 0.205l140.452 20.070c-0.123-78.971-64.389-143.155-143.36-143.155v0zM290.497 379.597c14.131-15.729 24.576-34.447 30.72-55.214l-87.040-12.411 56.32 67.625zM839.688 468.48c-13.189 0-26.051-1.516-38.461-4.178l-64.922 194.806-20.603 63.324 90.276 34.079c10.568 4.014 15.892 15.811 11.919 26.419-4.014 10.609-15.77 15.811-26.419 11.919l-108.544-40.96c-10.199-3.891-15.606-15.073-12.206-25.477l20.931-63.16-277.709-104.161-37.396 112.189h53.535c11.305 0 20.48 9.175 20.48 20.48s-9.175 20.48-20.48 20.48h-163.84c-11.305 0-20.48-9.175-20.48-20.48s9.175-20.48 20.48-20.48h67.174l42.762-128.287c-0.901-0.696-2.048-1.065-2.785-1.966l-87.695-105.185c-29.123 19.292-63.898 30.638-101.376 30.638-101.622 0-184.32-82.698-184.32-184.32s82.698-184.32 184.32-184.32c101.622 0 184.32 82.698 184.32 184.32 0 1.925-0.492 3.686-0.573 5.571l105.882 15.114c0.492 0.082 0.901 0.41 1.352 0.492 0.778 0.164 1.516 0.123 2.212 0.328 0.737 0.246 1.188 0.778 1.884 1.106 1.229 0.532 2.417 1.188 3.523 2.048 1.106 0.778 2.048 1.679 2.949 2.662 0.492 0.492 1.147 0.819 1.556 1.352l222.659 296.878 52.634-158.597c-63.16-29.286-107.356-92.856-107.356-166.953 0-101.622 82.698-184.32 184.32-184.32s184.32 82.698 184.32 184.32c0 101.622-82.698 184.32-184.32 184.32v0z" />
<glyph unicode="&#xe904;" glyph-name="football" d="M884.347 287.42c10.977 51.446 16.794 105.267 16.794 160.563 0 55.009-5.325 108.626-16.097 159.826 70.451-72.458 98.017-147.005 98.017-159.826s-27.73-87.859-98.714-160.563zM194.376 239.825c-20.029 65.29-30.515 134.963-30.515 208.159 0 73.236 10.486 142.909 30.515 208.2 73.114 54.804 175.923 99 317.645 99 141.681 0 244.49-44.196 317.645-99 20.029-65.29 30.515-134.963 30.515-208.2 0-73.196-10.486-142.868-30.515-208.159-73.155-54.804-175.964-99.041-317.645-99.041-141.722 0-244.531 44.237-317.645 99.041zM40.98 447.984c0 12.82 27.566 87.368 97.976 159.826-10.772-51.2-16.056-104.817-16.056-159.826 0-55.296 5.775-109.117 16.753-160.563-70.984 72.704-98.673 147.743-98.673 160.563zM512.020 796.144c-372.572 0-512-289.096-512-348.16 0-59.023 139.428-348.16 512-348.16 372.531 0 512 289.137 512 348.16 0 59.064-139.469 348.16-512 348.16zM757.768 468.48h-61.44v61.44c0 11.305-9.175 20.48-20.48 20.48s-20.48-9.175-20.48-20.48v-61.44h-40.96v61.44c0 11.305-9.175 20.48-20.48 20.48s-20.48-9.175-20.48-20.48v-61.44h-40.96v61.44c0 11.305-9.175 20.48-20.48 20.48s-20.48-9.175-20.48-20.48v-61.44h-40.96v61.44c0 11.305-9.175 20.48-20.48 20.48s-20.48-9.175-20.48-20.48v-61.44h-40.96v61.44c0 11.305-9.175 20.48-20.48 20.48s-20.48-9.175-20.48-20.48v-61.44h-61.44c-11.305 0-20.48-9.175-20.48-20.48s9.175-20.48 20.48-20.48h61.44v-61.44c0-11.305 9.175-20.48 20.48-20.48s20.48 9.175 20.48 20.48v61.44h40.96v-61.44c0-11.305 9.175-20.48 20.48-20.48s20.48 9.175 20.48 20.48v61.44h40.96v-61.44c0-11.305 9.175-20.48 20.48-20.48s20.48 9.175 20.48 20.48v61.44h40.96v-61.44c0-11.305 9.175-20.48 20.48-20.48s20.48 9.175 20.48 20.48v61.44h40.96v-61.44c0-11.305 9.175-20.48 20.48-20.48s20.48 9.175 20.48 20.48v61.44h61.44c11.305 0 20.48 9.175 20.48 20.48s-9.175 20.48-20.48 20.48z" />
<glyph unicode="&#xe905;" glyph-name="soccer-ball" d="M374.587-2.478l-50.831 156.467 102.564 140.984h171.377l102.564-140.984-50.831-156.467c-43.5-13.271-89.62-20.562-137.421-20.562s-93.921 7.291-137.421 20.562v0zM126.575 178.074c-52.224 74.383-83.436 164.291-85.156 261.489l132.997 96.748 165.437-53.699 53.207-163.717-102.4-140.82h-164.086zM359.064 893.030l132.465-96.666v-174.121l-138.691-100.762-165.806 53.78-50.872 155.484c55.992 74.26 133.284 131.4 222.904 162.284v0zM887.857 730.747l-50.872-155.484-165.806-53.78-138.691 100.762v174.121l132.465 96.666c89.62-30.884 166.912-88.023 222.904-162.284v0zM897.442 178.074h-164.086l-102.4 140.82 53.207 163.717 165.437 53.699 132.997-96.748c-1.72-97.198-32.932-187.105-85.156-261.489v0zM512.008 960c-282.337 0-512-229.663-512-512s229.663-512 512-512c282.337 0 512 229.663 512 512s-229.663 512-512 512v0z" />
<glyph unicode="&#xe906;" glyph-name="guitar" d="M878.146 726.2h-49.971c-5.448 0-10.609-2.171-14.459-5.98l-131.85-131.809c-4.588 4.833-9.421 9.789-14.541 14.909-5.079 5.12-10.076 9.953-14.95 14.541l131.85 131.85c3.932 3.932 6.062 9.257 6.021 14.828l-0.778 48.865 97.157 97.157 87.941-87.941-96.42-96.42zM737.366 401.879c-5.161-44.401-50.79-72.622-91.095-97.608-19.866-12.288-38.625-23.921-51.732-36.987-46.858-46.899-52.593-83.395-58.081-118.784-5.366-34.243-10.445-66.601-58.819-115.016-88.801-88.883-220.815-71.639-336.323 43.827-115.466 115.507-132.669 247.48-43.827 336.323 48.415 48.415 80.773 53.453 115.057 58.819 35.348 5.489 71.844 11.223 118.743 58.081 13.107 13.066 24.699 31.867 36.987 51.732 24.945 40.305 53.207 85.975 97.608 91.136 2.867 0.328 5.816 0.492 8.847 0.492 36.127 0 81.265-24.33 134.513-72.049 9.339-8.233 18.924-17.285 29.123-27.484s19.251-19.784 27.443-29.123l0.205-0.123c51.61-57.59 75.694-105.759 71.352-143.237v0zM1003.278 793.416l14.746 14.746c3.809 3.85 5.98 9.052 5.98 14.459 0 5.448-2.171 10.65-5.98 14.5l-116.9 116.9c-8.028 7.987-20.972 7.987-28.959 0l-14.746-14.787-14.746 14.787c-8.028 7.987-20.972 7.987-28.959 0-8.028-8.028-8.028-20.972 0-29l14.746-14.746-29.491-29.491-14.746 14.787c-7.987 7.987-20.972 7.987-28.959 0-7.987-8.028-7.987-20.972 0-28.959l14.746-14.787-15.606-15.565c-3.932-3.932-6.103-9.257-6.021-14.828l0.737-48.865-127.468-127.508c-61.317 51.405-114.401 74.424-160.522 69.018-64.061-7.455-99.328-64.43-127.672-110.264-11.018-17.777-21.422-34.611-31.13-44.319-37.437-37.396-64.635-41.656-96.092-46.572-37.437-5.857-79.872-12.493-137.708-70.328-104.776-104.776-87.163-263.25 43.827-394.24 74.015-73.974 156.795-111.821 233.718-111.821 59.228 0 114.934 22.405 160.522 67.994 57.836 57.836 64.471 100.229 70.328 137.667 4.915 31.498 9.175 58.696 46.572 96.133 9.748 9.708 26.542 20.111 44.36 31.171 45.793 28.303 102.769 63.57 110.223 127.672 5.366 46.367-17.613 99.287-69.018 160.522l127.59 127.549h49.971c5.448 0 10.65 2.171 14.5 5.98l14.746 14.787 14.746-14.787c3.973-3.973 9.216-5.98 14.459-5.98s10.486 2.007 14.5 5.98c7.987 8.028 7.987 20.972 0 29l-14.746 14.746 29.491 29.491 14.746-14.746c3.973-3.973 9.216-5.98 14.459-5.98s10.486 2.007 14.5 5.98c7.987 8.028 7.987 20.972 0 28.959l-14.746 14.746zM550.711 398.766c-23.47-23.552-64.43-23.511-87.941 0-24.207 24.248-24.207 63.734 0 87.941 11.756 11.756 27.361 18.227 43.991 18.227 16.589 0 32.195-6.472 43.95-18.227 24.248-24.207 24.248-63.693 0-87.941v0zM433.811 515.666c-40.223-40.182-40.223-105.677 0-145.859 19.456-19.497 45.384-30.188 72.95-30.188 27.525 0 53.412 10.691 72.909 30.188 40.223 40.182 40.223 105.677 0 145.859-38.994 38.994-106.947 38.994-145.859 0v0zM389.861 179.466l-146.391 146.391 29.491 29.45 146.391-146.35-29.491-29.491zM287.461 398.766c-8.028 7.987-20.972 7.987-28.959 0l-58.45-58.45c-7.987-7.987-7.987-20.972 0-28.959l175.309-175.309c4.014-4.014 9.257-6.021 14.5-6.021s10.445 2.007 14.459 6.021l58.45 58.45c3.85 3.809 6.021 9.011 6.021 14.459s-2.171 10.65-6.021 14.5l-175.309 175.309z" />
<glyph unicode="&#xe907;" glyph-name="piano" d="M983.048 79.36c0-11.264-9.175-20.48-20.48-20.48h-184.32v286.72h61.44c11.305 0 20.48 9.175 20.48 20.48v430.080h102.4c11.305 0 20.48-9.216 20.48-20.48v-696.32zM532.488 345.6h61.44c11.305 0 20.48 9.175 20.48 20.48v430.080h40.96v-430.080c0-11.305 9.175-20.48 20.48-20.48h61.44v-286.72h-204.8v286.72zM286.728 345.6h61.44c11.305 0 20.48 9.175 20.48 20.48v430.080h40.96v-430.080c0-11.305 9.175-20.48 20.48-20.48h61.44v-286.72h-204.8v286.72zM40.968 79.36v696.32c0 11.264 9.175 20.48 20.48 20.48h102.4v-430.080c0-11.305 9.175-20.48 20.48-20.48h61.44v-286.72h-184.32c-11.305 0-20.48 9.216-20.48 20.48v0zM962.568 837.12h-102.4v20.48c0 11.305-9.175 20.48-20.48 20.48h-163.84c-11.305 0-20.48-9.175-20.48-20.48v-20.48h-40.96v20.48c0 11.305-9.175 20.48-20.48 20.48h-163.84c-11.305 0-20.48-9.175-20.48-20.48v-20.48h-40.96v20.48c0 11.305-9.175 20.48-20.48 20.48h-163.84c-11.305 0-20.48-9.175-20.48-20.48v-20.48h-102.4c-33.874 0-61.44-27.566-61.44-61.44v-696.32c0-33.874 27.566-61.44 61.44-61.44h901.12c33.874 0 61.44 27.566 61.44 61.44v696.32c0 33.874-27.566 61.44-61.44 61.44v0z" />
<glyph unicode="&#xe908;" glyph-name="char" d="M983.048 161.28c0-11.264-9.175-20.48-20.48-20.48h-143.36v389.12c0 11.264 9.175 20.48 20.48 20.48h122.88c11.305 0 20.48-9.216 20.48-20.48v-368.64zM819.208 58.88v40.96h81.92v-40.96h-81.92zM245.768 140.8v163.84h532.48v-163.84h-532.48zM122.888 58.88v40.96h81.92v-40.96h-81.92zM40.968 161.28v368.64c0 11.264 9.175 20.48 20.48 20.48h122.88c11.305 0 20.48-9.216 20.48-20.48v-389.12h-143.36c-11.305 0-20.48 9.216-20.48 20.48v0zM122.888 816.64c0 11.264 9.175 20.48 20.48 20.48h737.28c11.305 0 20.48-9.216 20.48-20.48v-225.28h-61.44c-33.874 0-61.44-27.566-61.44-61.44v-184.32h-532.48v184.32c0 33.874-27.566 61.44-61.44 61.44h-61.44v225.28zM962.568 591.36h-20.48v225.28c0 33.874-27.566 61.44-61.44 61.44h-737.28c-33.874 0-61.44-27.566-61.44-61.44v-225.28h-20.48c-33.874 0-61.44-27.566-61.44-61.44v-368.64c0-33.874 27.566-61.44 61.44-61.44h20.48v-61.44c0-11.305 9.175-20.48 20.48-20.48h122.88c11.305 0 20.48 9.175 20.48 20.48v61.44h532.48v-61.44c0-11.305 9.175-20.48 20.48-20.48h122.88c11.305 0 20.48 9.175 20.48 20.48v61.44h20.48c33.874 0 61.44 27.566 61.44 61.44v368.64c0 33.874-27.566 61.44-61.44 61.44v0z" />
<glyph unicode="&#xe909;" glyph-name="bed" d="M983.048 120.32c0-11.264-9.175-20.48-20.48-20.48s-20.48 9.216-20.48 20.48v409.6c0 11.264 9.175 20.48 20.48 20.48s20.48-9.216 20.48-20.48v-409.6zM122.888 181.76v286.72h778.24v-286.72h-778.24zM81.928 120.32c0-11.264-9.175-20.48-20.48-20.48s-20.48 9.216-20.48 20.48v409.6c0 11.264 9.175 20.48 20.48 20.48s20.48-9.216 20.48-20.48v-409.6zM450.568 509.44h-204.8v61.44c0 11.264 9.175 20.48 20.48 20.48h163.84c11.305 0 20.48-9.216 20.48-20.48v-61.44zM778.248 509.44h-204.8v61.44c0 11.264 9.175 20.48 20.48 20.48h163.84c11.305 0 20.48-9.216 20.48-20.48v-61.44zM163.848 775.68c0 11.264 9.175 20.48 20.48 20.48h655.36c11.305 0 20.48-9.216 20.48-20.48v-266.24h-40.96v61.44c0 33.874-27.566 61.44-61.44 61.44h-163.84c-33.874 0-61.44-27.566-61.44-61.44v-61.44h-40.96v61.44c0 33.874-27.566 61.44-61.44 61.44h-163.84c-33.874 0-61.44-27.566-61.44-61.44v-61.44h-40.96v266.24zM962.568 591.36c-33.874 0-61.44-27.566-61.44-61.44v245.76c0 33.874-27.566 61.44-61.44 61.44h-655.36c-33.874 0-61.44-27.566-61.44-61.44v-245.76c0 33.874-27.566 61.44-61.44 61.44s-61.44-27.566-61.44-61.44v-409.6c0-33.874 27.566-61.44 61.44-61.44s61.44 27.566 61.44 61.44v20.48h778.24v-20.48c0-33.874 27.566-61.44 61.44-61.44s61.44 27.566 61.44 61.44v409.6c0 33.874-27.566 61.44-61.44 61.44v0z" />
<glyph unicode="&#xe90a;" glyph-name="lamp" horiz-adv-x="696" d="M389.128 509.44h-341.811l111.698 409.6h378.307l111.698-409.6h-259.891zM368.648 385.946c-6.636 0.41-13.435 0.614-20.48 0.614s-13.844-0.205-20.48-0.614v82.534h40.96v-82.534zM509.1 283.955c23.593-31.416 29.573-72.95 16.835-116.982-19.988-69.14-47.882-140.124-62.71-176.251-3.482-8.479-10.486-13.763-18.268-13.763h-193.905c-7.741 0-14.664 5.161-18.145 13.476-13.804 32.932-40.305 99.697-62.505 176.538-12.739 44.032-6.758 85.565 16.835 116.982 24.535 32.604 67.625 52.961 123.003 59.31 24.044 2.662 51.814 2.662 75.858 0 55.378-6.349 98.468-26.706 123.003-59.31v0zM695.591 494.326l-122.88 450.56c-2.417 8.929-10.486 15.114-19.743 15.114h-409.6c-9.257 0-17.326-6.185-19.743-15.114l-122.88-450.56c-1.679-6.144-0.41-12.739 3.482-17.818 3.85-5.038 9.871-8.028 16.261-8.028h266.24v-87.245c-71.148-12.206-110.961-44.401-132.219-72.663-31.539-41.943-39.854-96.297-23.47-152.986 22.815-78.807 49.93-147.21 64.102-181.002 9.789-23.429 31.744-38.584 55.91-38.584h193.905c24.33 0 46.367 15.36 56.156 39.158 15.155 36.905 43.622 109.404 64.184 180.429 16.384 56.689 8.069 111.043-23.47 152.986-21.258 28.262-61.071 60.457-132.219 72.663v87.245h266.24c6.39 0 12.411 2.99 16.261 8.028 3.891 5.079 5.161 11.674 3.482 17.818v0z" />
<glyph unicode="&#xe90b;" glyph-name="shirt" d="M286.728 58.88h450.56v552.96c0 8.274 4.997 15.77 12.657 18.924s16.466 1.434 22.323-4.424l87.9-87.941 114.401 114.401-142.336 142.336c-27.075 27.075-63.078 41.984-101.376 41.984h-43.622c-17.203-24.904-68.28-81.92-175.227-81.92s-158.024 57.016-175.227 81.92h-43.622c-38.298 0-74.301-14.909-101.376-41.984l-142.336-142.336 114.401-114.401 87.9 87.941c5.898 5.857 14.705 7.619 22.323 4.424 7.66-3.154 12.657-10.65 12.657-18.924v-552.96zM757.768 17.92h-491.52c-11.305 0-20.48 9.175-20.48 20.48v524.001l-67.42-67.461c-8.028-7.987-20.972-7.987-29 0l-143.36 143.36c-7.987 8.028-7.987 20.972 0 29l156.836 156.795c34.816 34.816 81.101 53.985 130.335 53.985h55.009c7.741 0 14.828-4.383 18.309-11.305 1.434-2.785 37.847-70.615 145.531-70.615s144.097 67.83 145.572 70.738c3.523 6.799 10.609 11.182 18.268 11.182h55.009c49.234 0 95.519-19.169 130.335-53.985l156.836-156.795c7.987-8.028 7.987-20.972 0-29l-143.36-143.36c-8.028-7.987-20.972-7.987-29 0l-67.42 67.461v-524.001c0-11.305-9.175-20.48-20.48-20.48v0z" />
<glyph unicode="&#xe90c;" glyph-name="shoe" d="M757.768 263.68c-200.294 0-403.579 40.141-405.586 40.55-1.27 0.287-2.58 0.41-3.85 0.41-4.669 0-9.257-1.679-12.943-4.628-4.71-3.768-7.537-9.585-7.7-15.606-0.246-9.462-3.973-20.726-20.48-20.726h-245.76c-16.507 0-20.234 11.264-20.48 20.48v163.84c0 85.565 43.54 150.692 64.717 177.275 45.998-31.867 173.875-111.534 251.658-72.704 6.922 3.482 11.305 10.568 11.305 18.309v60.58c41.861-3.604 81.674-18.268 116.204-42.926l33.137-23.675-61.44-61.399c-7.987-8.028-7.987-20.972 0-29 4.014-3.973 9.257-5.98 14.5-5.98s10.486 2.007 14.5 5.98l66.232 66.273 37.888-27.075-51.2-51.159c-7.987-8.028-7.987-20.972 0-29 4.014-3.973 9.257-5.98 14.5-5.98s10.486 2.007 14.5 5.98l55.992 56.033 42.394-30.31c26.747-19.087 57.999-30.638 90.399-33.341 158.966-13.435 226.796-43.581 226.796-100.762 0-57.999-12.657-61.44-225.28-61.44zM759.693 466.678c-25.068 2.089-49.275 11.059-70.042 25.887l-181.002 129.311c-47.104 33.628-102.605 51.405-160.481 51.405-11.305 0-20.48-9.175-20.48-20.48v-67.748c-61.563-15.565-172.851 54.067-212.992 84.132-8.151 6.144-19.579 5.325-26.788-1.884-3.564-3.604-87.9-89.457-87.9-219.3v-163.84c0-24.699 16.343-61.44 61.44-61.44h245.76c31.744 0 49.275 18.227 56.852 37.642 56.73-10.117 226.099-37.642 393.708-37.642 204.513 0 266.24 0 266.24 102.4 0 105.062-133.612 130.54-264.315 141.558z" />
<glyph unicode="&#xe90d;" glyph-name="wallet" d="M675.848 345.6c-11.305 0-20.48 9.216-20.48 20.48s9.175 20.48 20.48 20.48c11.305 0 20.48-9.216 20.48-20.48s-9.175-20.48-20.48-20.48v0zM675.848 427.52c-33.874 0-61.44-27.566-61.44-61.44s27.566-61.44 61.44-61.44c33.874 0 61.44 27.566 61.44 61.44s-27.566 61.44-61.44 61.44v0zM983.048 284.16c0-11.264-9.175-20.48-20.48-20.48h-368.64c-11.305 0-20.48 9.216-20.48 20.48v163.84c0 11.264 9.175 20.48 20.48 20.48h368.64c11.305 0 20.48-9.216 20.48-20.48v-163.84zM901.128 79.36c0-11.264-9.175-20.48-20.48-20.48h-819.2c-11.305 0-20.48 9.216-20.48 20.48v573.44c0 11.264 9.175 20.48 20.48 20.48h819.2c11.305 0 20.48-9.216 20.48-20.48v-143.36h-307.2c-33.874 0-61.44-27.566-61.44-61.44v-163.84c0-33.874 27.566-61.44 61.44-61.44h307.2v-143.36zM312.861 831.877l50.217-25.108-73.933-92.529h-70.41l94.126 117.637zM435.7 831.877l235.315-117.637h-329.441l3.359 4.219 90.767 113.418zM962.568 509.44h-20.48v143.36c0 33.874-27.566 61.44-61.44 61.44h-118.047l-323.338 161.669c-8.602 4.26-19.128 2.007-25.149-5.489l-24.781-30.966-72.95 36.454c-8.643 4.26-19.128 2.048-25.19-5.489l-124.928-156.18h-104.817c-33.874 0-61.44-27.566-61.44-61.44v-573.44c0-33.874 27.566-61.44 61.44-61.44h819.2c33.874 0 61.44 27.566 61.44 61.44v143.36h20.48c33.874 0 61.44 27.566 61.44 61.44v163.84c0 33.874-27.566 61.44-61.44 61.44v0z" />
<glyph unicode="&#xe90e;" glyph-name="desk" d="M819.208 448v0c0 11.305-9.175 20.48-20.48 20.48h-81.92c-11.305 0-20.48-9.175-20.48-20.48s9.175-20.48 20.48-20.48h81.92c11.305 0 20.48 9.175 20.48 20.48zM696.328 652.8v0c0-11.305 9.175-20.48 20.48-20.48h81.92c11.305 0 20.48 9.175 20.48 20.48s-9.175 20.48-20.48 20.48h-81.92c-11.305 0-20.48-9.175-20.48-20.48zM901.128 550.4h-286.72v163.84h286.72v-163.84zM614.408 345.6v163.84h286.72v-163.84h-286.72zM122.888 632.32v81.92h450.56v-81.92h-450.56zM1003.528 755.2h-983.040c-11.305 0-20.48-9.175-20.48-20.48s9.175-20.48 20.48-20.48h61.44v-552.96c0-11.305 9.175-20.48 20.48-20.48s20.48 9.175 20.48 20.48v430.080h450.56v-266.24c0-11.305 9.175-20.48 20.48-20.48h307.2v-143.36c0-11.305 9.175-20.48 20.48-20.48s20.48 9.175 20.48 20.48v552.96h61.44c11.305 0 20.48 9.175 20.48 20.48s-9.175 20.48-20.48 20.48v0z" />
<glyph unicode="&#xe90f;" glyph-name="fries" horiz-adv-x="696" d="M609.268-19.501c-5.038-3.604-11.387-4.792-17.531-3.277-7.045 1.843-14.95 4.137-23.716 6.636-47.35 13.558-118.907 34.079-219.873 34.079-100.925 0-172.483-20.521-219.832-34.079-8.765-2.499-16.671-4.792-23.716-6.636-6.185-1.597-12.534-0.328-17.531 3.277-2.908 2.13-7.823 6.881-8.315 15.278l-8.233 143.155c58.86 20.603 151.265 42.844 277.627 42.844 126.403 0 218.808-22.241 277.668-42.844l-8.233-143.114c-0.492-8.438-5.407-13.189-8.315-15.319v0zM81.908 796.176h40.96v-137.298c-0.369 0.41-0.942 0.532-1.352 0.901-4.137 3.891-8.806 7.045-14.008 9.298-0.737 0.287-1.516 0.492-2.294 0.778-5.571 2.048-11.469 3.441-17.654 3.441h-5.652v122.88zM163.828 878.096h40.96v-289.096c-14.418 8.397-28.14 17.981-40.96 28.713v260.383zM286.708 837.136v-279.634c-0.983 0.246-1.966 0.451-2.949 0.696-12.452 2.785-24.617 6.308-36.291 10.732-0.573 0.205-1.147 0.41-1.72 0.614v267.592h40.96zM327.668 919.056h40.96v-367.165c-2.621-0.164-5.161-0.451-7.864-0.573-8.397-0.41-16.794-0.41-25.19 0-2.703 0.123-5.243 0.41-7.905 0.573v367.165zM450.548 837.136v-267.592c-0.532-0.205-1.106-0.41-1.679-0.614-11.674-4.424-23.839-7.946-36.291-10.732-0.983-0.246-1.966-0.451-2.99-0.696v279.634h40.96zM491.508 878.096h40.96v-260.383c-12.82-10.732-26.501-20.316-40.96-28.713v289.096zM614.388 796.176v-122.88h-5.612c-6.185 0-12.083-1.393-17.654-3.441-0.778-0.287-1.556-0.492-2.294-0.778-5.202-2.253-9.871-5.407-14.049-9.298-0.41-0.369-0.942-0.492-1.352-0.901v137.298h40.96zM42.177 632.336h45.384c2.908 0 5.407-1.147 7.127-3.236l0.082-0.082c2.13-2.621 5.489-6.513 9.544-10.936 3.604-4.014 7.782-8.233 12.329-12.739l1.229-1.229c35.267-34.857 97.526-80.282 188.457-91.628 11.96-1.516 26.010-3.031 41.82-3.031 15.852 0 29.901 1.516 41.861 3.031 90.849 11.346 153.068 56.73 188.375 91.546 0.532 0.492 0.983 0.942 1.434 1.434 4.506 4.465 8.643 8.643 12.206 12.616 4.014 4.424 7.332 8.233 9.503 10.854 0.041 0.041 0.123 0.123 0.164 0.205 1.638 2.048 4.178 3.195 7.086 3.195h45.384l-25.928-450.888c-62.341 20.521-155.935 41.288-280.084 41.288-124.109 0-217.702-20.767-280.044-41.288l-25.928 450.888zM683.938 660.435c-7.414 7.864-17.777 12.247-28.59 12.575v143.647c0 11.305-9.134 20.48-20.48 20.48h-61.44v61.44c0 11.305-9.134 20.48-20.48 20.48h-81.92c-11.305 0-20.48-9.175-20.48-20.48v-20.48h-40.96v61.44c0 11.305-9.134 20.48-20.48 20.48h-81.92c-11.305 0-20.48-9.175-20.48-20.48v-61.44h-40.96v20.48c0 11.305-9.134 20.48-20.48 20.48h-81.92c-11.305 0-20.48-9.175-20.48-20.48v-61.44h-61.44c-11.305 0-20.48-9.175-20.48-20.48v-143.647c-10.772-0.328-21.135-4.71-28.549-12.575-7.7-8.192-11.756-19.292-11.1-30.474l36.577-636.6c1.065-18.391 10.24-35.144 25.108-45.957 10.609-7.782 23.265-11.796 36.209-11.796 5.202 0 10.445 0.655 15.647 2.007 7.332 1.884 15.606 4.26 24.781 6.881 45.138 12.943 113.336 32.481 208.527 32.481 95.232 0 163.43-19.538 208.568-32.481 9.175-2.621 17.449-4.997 24.781-6.881 18.022-4.669 36.946-1.106 51.855 9.789 14.868 10.813 24.044 27.566 25.108 45.998l36.577 636.559c0.655 11.182-3.4 22.282-11.1 30.474v0z" />
<glyph unicode="&#xe910;" glyph-name="weights" d="M962.568 427.52h-20.48v40.96h20.48c11.305 0 20.48-9.175 20.48-20.48s-9.175-20.48-20.48-20.48v0zM901.128 243.2c0-11.305-9.175-20.48-20.48-20.48s-20.48 9.175-20.48 20.48v409.6c0 11.305 9.175 20.48 20.48 20.48s20.48-9.175 20.48-20.48v-409.6zM819.208 202.24c0-11.305-9.175-20.48-20.48-20.48s-20.48 9.175-20.48 20.48v491.52c0 11.305 9.175 20.48 20.48 20.48s20.48-9.175 20.48-20.48v-491.52zM286.728 427.52v40.96h450.56v-40.96h-450.56zM245.768 202.24c0-11.305-9.175-20.48-20.48-20.48s-20.48 9.175-20.48 20.48v491.52c0 11.305 9.175 20.48 20.48 20.48s20.48-9.175 20.48-20.48v-491.52zM143.368 222.72c-11.305 0-20.48 9.175-20.48 20.48v409.6c0 11.305 9.175 20.48 20.48 20.48s20.48-9.175 20.48-20.48v-409.6c0-11.305-9.175-20.48-20.48-20.48v0zM61.448 427.52c-11.305 0-20.48 9.175-20.48 20.48s9.175 20.48 20.48 20.48h20.48v-40.96h-20.48zM962.568 509.44h-20.48v143.36c0 33.874-27.566 61.44-61.44 61.44-8.069 0-15.77-1.679-22.856-4.506-7.086 26.092-30.761 45.466-59.064 45.466-33.874 0-61.44-27.566-61.44-61.44v-184.32h-450.56v184.32c0 33.874-27.566 61.44-61.44 61.44-28.303 0-51.978-19.374-59.064-45.466-7.086 2.826-14.787 4.506-22.856 4.506-33.874 0-61.44-27.566-61.44-61.44v-143.36h-20.48c-33.874 0-61.44-27.566-61.44-61.44s27.566-61.44 61.44-61.44h20.48v-143.36c0-33.874 27.566-61.44 61.44-61.44 8.069 0 15.77 1.679 22.856 4.506 7.086-26.092 30.761-45.466 59.064-45.466 33.874 0 61.44 27.566 61.44 61.44v184.32h450.56v-184.32c0-33.874 27.566-61.44 61.44-61.44 28.303 0 51.978 19.374 59.064 45.466 7.086-2.826 14.787-4.506 22.856-4.506 33.874 0 61.44 27.566 61.44 61.44v143.36h20.48c33.874 0 61.44 27.566 61.44 61.44s-27.566 61.44-61.44 61.44v0z" />
<glyph unicode="&#xe911;" glyph-name="coffee-cup" d="M640.807 710.078c-17.367 17.572-49.725 50.258 0 100.475 7.946 8.069 20.931 8.11 28.959 0.164s8.11-20.931 0.164-28.959c-21.217-21.422-17.572-25.149 0-42.885 17.367-17.572 49.725-50.217 0-100.475-4.014-4.055-9.298-6.062-14.582-6.062-5.161 0-10.404 1.966-14.377 5.898-8.028 7.946-8.11 20.931-0.164 28.959 21.217 21.463 17.572 25.149 0 42.885zM231.207 710.078c-17.367 17.572-49.725 50.258 0 100.475 7.946 8.069 20.931 8.11 28.959 0.164s8.11-20.931 0.164-28.959c-21.217-21.422-17.572-25.149 0-42.885 17.367-17.572 49.725-50.217 0-100.475-4.014-4.055-9.298-6.062-14.582-6.062-5.161 0-10.404 1.966-14.377 5.898-8.028 7.946-8.11 20.931-0.164 28.959 21.217 21.463 17.572 25.149 0 42.885zM432.812 765.456c-18.432 31.908-41.37 71.68 0 143.36 5.693 9.789 18.227 13.148 27.976 7.496 9.83-5.693 13.189-18.186 7.537-27.976-29.573-51.2-17.162-72.704 0-102.4 18.432-31.949 41.37-71.68 0-143.36-3.809-6.595-10.691-10.24-17.777-10.24-3.482 0-7.004 0.86-10.24 2.703-9.789 5.693-13.148 18.186-7.496 28.017 29.573 51.2 17.162 72.663 0 102.4zM778.228-2.544c0-11.346-9.134-20.48-20.48-20.48h-655.36c-11.305 0-20.48 9.134-20.48 20.48 0 11.305 9.175 20.48 20.48 20.48h655.36c11.346 0 20.48-9.175 20.48-20.48zM971.354 333.001c-30.106-48.783-85.77-75.571-177.807-85.361 26.296 69.55 46.94 147.128 57.876 219.382 60.006-4.628 104.325-25.723 122.675-59.31 12.698-23.224 11.674-51.159-2.744-74.711zM685.904 123.613c-10.486-14.909-28.672-23.757-48.579-23.757h-414.474c-19.907 0-38.093 8.847-48.579 23.757-67.584 95.846-127.263 289.751-132.874 426.803h777.38c-5.612-137.052-65.331-330.957-132.874-426.803zM1010.061 427.373c-14.95 27.361-54.927 71.721-153.436 79.954 2.253 22.118 3.523 43.5 3.523 63.57 0 11.305-9.134 20.48-20.48 20.48h-819.2c-11.305 0-20.48-9.175-20.48-20.48 0-146.964 64.512-362.619 140.82-470.917 18.145-25.723 48.824-41.083 82.043-41.083h414.474c33.219 0 63.898 15.36 82.043 41.083 20.152 28.59 39.404 64.799 56.934 105.062 118.579 9.052 190.095 41.943 229.949 106.537 22.2 36.209 23.634 79.503 3.809 115.794z" />
<glyph unicode="&#xe912;" glyph-name="wine" horiz-adv-x="532" d="M299.966-23.040h-67.42c14.295 11.674 25.395 24.904 33.71 38.257 8.274-13.353 19.374-26.583 33.71-38.257zM152.51 384.389c-68.813 34.406-111.534 105.882-111.534 186.491 0 24.74 0 49.766 1.229 78.561 39.608 2.294 79.258-5.407 124.232-14.868 47.268-9.953 97.731-20.562 155.648-20.562 49.603 0 105.185 8.724 168.346 31.457 1.065-27.116 1.106-50.995 1.106-74.588 0-80.609-42.762-152.084-111.575-186.491-50.913-25.436-91.054-53.33-113.705-94.495-22.651 41.165-62.833 69.059-113.746 94.495zM78.25 919.040h375.972c20.357-104.202 29.573-175.227 33.792-230.932-132.219-50.708-228.352-31.293-313.18-13.435-44.319 9.339-86.753 17.572-130.13 15.933 4.26 55.337 13.517 125.747 33.546 228.434zM398.27 347.771c82.78 41.37 134.226 126.853 134.226 223.109 0 81.551 0 165.847-41.37 372.654-1.925 9.585-10.322 16.466-20.070 16.466h-409.6c-9.789 0-18.186-6.881-20.070-16.466-41.37-206.807-41.37-291.103-41.37-372.654 0-96.256 51.405-181.74 134.185-223.109 83.395-41.697 111.575-78.438 111.575-145.531v-122.88c0-33.423-35.062-102.4-143.36-102.4-11.346 0-20.48-9.175-20.48-20.48s9.134-20.48 20.48-20.48h327.68c11.305 0 20.48 9.175 20.48 20.48s-9.175 20.48-20.48 20.48c-108.339 0-143.36 68.977-143.36 102.4v122.88c0 67.092 28.14 103.834 111.534 145.531z" />
<glyph unicode="&#xe913;" glyph-name="soda" horiz-adv-x="778" d="M655.368 714.24h-614.4v40.96h614.4v-40.96zM571.482 308.531c-68.076 8.028-129.229 39.526-193.495 73.073-81.265 42.394-165.642 85.729-270.664 84.91l-22.979 206.766h527.647l-40.509-364.749zM534.618-23.040h-372.9l-49.889 448.594c93.757-0.778 171.663-40.837 247.235-80.282 64.963-33.874 132.014-68.485 207.872-77.414l-32.317-290.898zM757.768 960h-286.72c-7.741 0-14.828-4.383-18.309-11.305l-76.268-152.535h-355.983c-11.305 0-20.48-9.175-20.48-20.48v-81.92c0-11.305 9.175-20.48 20.48-20.48h22.61l25.395-228.311c0-0.082-0.041-0.123-0.041-0.205 0-0.164 0.082-0.246 0.082-0.369l54.477-490.168c1.147-10.404 9.912-18.227 20.357-18.227h409.6c10.445 0 19.21 7.823 20.357 18.227l79.913 719.053h22.61c11.305 0 20.48 9.175 20.48 20.48v81.92c0 11.305-9.175 20.48-20.48 20.48h-253.583l61.44 122.88h274.063c11.305 0 20.48 9.175 20.48 20.48s-9.175 20.48-20.48 20.48v0z" />
<glyph unicode="&#xe914;" glyph-name="martini" horiz-adv-x="778" d="M458.768 611.84c0-11.305-9.175-20.48-20.48-20.48s-20.48 9.175-20.48 20.48c0 11.305 9.175 20.48 20.48 20.48 3.85 0 7.25-1.352 10.281-3.195l0.041-0.041h0.041c5.939-3.604 10.117-9.789 10.117-17.244v0zM549.577 837.12l-99.082-165.069c-3.932 0.778-8.028 1.229-12.206 1.229-33.874 0-61.44-27.566-61.44-61.44 0-14.787 5.489-28.221 14.254-38.83l-19.538-32.563c-5.816-9.667-2.662-22.282 7.004-28.099 3.318-1.966 6.963-2.908 10.527-2.908 6.963 0 13.763 3.523 17.613 9.953l19.333 32.236c3.973-0.778 8.028-1.229 12.247-1.229 33.874 0 61.44 27.566 61.44 61.44 0 14.828-5.489 28.221-14.254 38.871l111.862 186.409h121.364l-329.564-476.037-329.564 476.037h490.004zM774.611 845.926c4.342 6.267 4.833 14.418 1.311 21.176-3.564 6.758-10.527 10.977-18.145 10.977h-135.864l30.556 50.913c5.816 9.667 2.662 22.282-7.045 28.099s-22.282 2.662-28.099-7.045l-43.213-71.967h-553.615c-7.619 0-14.623-4.219-18.145-10.977s-3.031-14.909 1.311-21.176l364.995-527.196v-341.77h-184.32c-11.346 0-20.48-9.175-20.48-20.48s9.134-20.48 20.48-20.48h409.6c11.305 0 20.48 9.175 20.48 20.48s-9.175 20.48-20.48 20.48h-184.32v341.77l364.995 527.196z" />
<glyph unicode="&#xe915;" glyph-name="beach-umbrella" d="M548.348 837.12c37.356 0 74.22-6.676 109.486-18.227-72.827-36.577-158.72-136.069-224.461-245.146l-179.651 103.997c64.758 98.796 175.841 159.375 294.625 159.375v0zM901.136 483.471c0-55.419-12.984-109.896-37.642-158.761l-179.692 104.038c61.358 111.575 104.325 235.684 99.615 317.071 73.564-66.273 117.719-161.3 117.719-262.349v0zM468.681 553.308c104.612 174.121 215.654 254.812 254.034 237.486 0.696-0.573 1.516-1.106 2.335-1.597 35.963-21.094 23.101-159.252-76.554-339.968l-179.814 104.079zM1003.536 58.88h-681.411l229.499 399.073 309.535-179.241c3.236-1.884 6.758-2.744 10.24-2.744 7.086 0 13.926 3.645 17.736 10.158 34.652 59.556 52.961 127.795 52.961 197.345 0 135.332-70.492 261.243-184.238 333.046l17.695 30.925c5.612 9.789 2.212 22.323-7.619 27.935s-22.323 2.253-27.935-7.619l-17.859-31.171c-54.026 26.747-113.377 41.492-173.793 41.492-140.247 0-270.828-75.612-340.828-197.304-5.612-9.789-2.253-22.282 7.496-27.935l214.917-124.436c0.164-0.082 0.205-0.205 0.328-0.287l85.893-49.684-241.254-419.553h-254.403c-11.346 0-20.48-9.175-20.48-20.48s9.134-20.48 20.48-20.48h983.040c11.305 0 20.48 9.175 20.48 20.48s-9.175 20.48-20.48 20.48v0z" />
<glyph unicode="&#xe916;" glyph-name="do-not-disturb" horiz-adv-x="532" d="M327.688 79.36c0-11.305-9.175-20.48-20.48-20.48h-163.84c-11.305 0-20.48 9.175-20.48 20.48s9.175 20.48 20.48 20.48h163.84c11.305 0 20.48-9.175 20.48-20.48v0zM409.608 161.28c0-11.305-9.175-20.48-20.48-20.48h-245.76c-11.305 0-20.48 9.175-20.48 20.48s9.175 20.48 20.48 20.48h245.76c11.305 0 20.48-9.175 20.48-20.48v0zM491.528-2.56c0-11.264-9.175-20.48-20.48-20.48h-409.6c-11.305 0-20.48 9.216-20.48 20.48v245.76c0 124.191 101.048 225.28 225.28 225.28 101.622 0 184.32 82.698 184.32 184.32v40.96c0 51.855-22.077 101.54-60.58 136.479-33.997 30.884-78.479 47.8-124.191 47.8-5.939 0-11.919-0.287-17.94-0.819-93.020-9.134-165.929-92.897-165.929-190.751v-33.669c0-11.264-9.175-20.48-20.48-20.48s-20.48 9.216-20.48 20.48v31.703c0 117.842 83.804 217.825 194.929 232.489v0c64.389 8.643 129.597-11.018 178.463-53.862 49.029-42.967 77.169-104.694 77.169-169.37v-696.32zM441.311 893.972c-57.713 50.586-134.595 73.605-210.78 63.652-131.441-17.367-230.523-134.799-230.523-273.121v-31.703c0-33.874 27.566-61.44 61.44-61.44s61.44 27.566 61.44 61.44v33.669c0 77.005 56.648 142.909 128.942 149.914 40.96 4.014 80.282-8.888 110.633-36.454 29.983-27.156 47.145-65.905 47.145-106.168v-40.96c0-79.053-64.307-143.36-143.36-143.36-146.801 0-266.24-119.439-266.24-266.24v-245.76c0-33.874 27.566-61.44 61.44-61.44h409.6c33.874 0 61.44 27.566 61.44 61.44v696.32c0 76.472-33.219 149.422-91.177 200.212v0z" />
<glyph unicode="&#xe917;" glyph-name="balloon" horiz-adv-x="532" d="M286.728 857.6c0-11.305-9.175-20.48-20.48-20.48-79.053 0-143.36-64.307-143.36-143.36 0-11.305-9.175-20.48-20.48-20.48s-20.48 9.175-20.48 20.48c0 101.622 82.698 184.32 184.32 184.32 11.305 0 20.48-9.175 20.48-20.48zM266.248 386.56c-70.82 0-225.28 154.214-225.28 307.2 0 124.232 101.048 225.28 225.28 225.28s225.28-101.048 225.28-225.28c0-152.986-154.46-307.2-225.28-307.2zM532.488 693.76c0 146.801-119.439 266.24-266.24 266.24s-266.24-119.439-266.24-266.24c0-150.159 129.065-302.244 225.526-339.436l-14.746-14.705c-5.857-5.898-7.619-14.664-4.424-22.323 3.154-7.66 10.65-12.657 18.924-12.657h27.32c61.194-145.859 28.877-179.487-15.77-225.116-27.361-27.976-58.409-59.679-72.417-118.292-2.621-10.977 4.137-22.036 15.155-24.658 1.597-0.41 3.195-0.573 4.751-0.573 9.298 0 17.695 6.308 19.907 15.729 11.387 47.555 37.069 73.81 61.891 99.164 55.91 57.139 88.76 107.028 30.802 253.747h10.281c8.274 0 15.77 4.997 18.924 12.657 3.195 7.66 1.434 16.425-4.424 22.323l-14.746 14.705c96.461 37.192 225.526 189.276 225.526 339.436z" />
<glyph unicode="&#xe918;" glyph-name="bowling-pins" horiz-adv-x="942" d="M163.848 878.080c47.882 0 86.835-41.329 86.835-92.16 0-25.19-9.83-60.457-31.334-112.64h-111.002c-21.258 50.913-31.334 86.917-31.334 112.64 0 50.831 38.953 92.16 86.835 92.16zM205.095 591.36h-82.493c0.246 13.804-0.901 27.689-3.031 40.96h88.515c-2.089-13.271-3.236-27.156-2.99-40.96zM117.891 550.4h91.914c2.212-10.527 4.997-20.726 9.052-30.024 9.953-22.323 19.497-46.94 28.385-73.196 3.645-10.732 15.36-16.507 25.969-12.82 10.732 3.604 16.466 15.237 12.82 25.928-9.257 27.443-19.292 53.289-29.655 76.554-4.547 10.486-7.7 22.979-9.093 36.495-2.949 24.371-0.696 52.511 5.652 73.032l3.113 8.315c24.617 58.45 35.594 98.918 35.594 131.236 0 73.4-57.344 133.12-127.795 133.12s-127.795-59.72-127.795-133.12c0-32.317 10.977-72.786 36.495-133.652l2.089-5.53c6.472-20.89 8.724-49.029 5.775-73.728-1.393-13.189-4.547-25.682-8.97-35.963-44.728-100.106-71.434-210.534-71.434-295.485 0-118.252 23.183-186.9 58.040-253.583 3.523-6.758 10.527-11.018 18.145-11.018h175.309c7.7 0 16.343 7.496 19.866 14.336 1.761 3.482 3.441 6.881 4.915 10.486 4.137 10.527-1.024 22.446-11.551 26.583-9.994 3.973-21.545-0.655-26.092-10.445h-149.914c-29.655 59.392-47.759 119.808-47.759 223.642 0 79.462 25.354 183.706 67.953 278.979 4.014 9.257 6.799 19.374 8.97 29.86zM778.248 878.080c47.882 0 86.835-41.329 86.835-92.16 0-25.19-9.83-60.457-31.334-112.64h-111.002c-21.258 50.913-31.334 86.917-31.334 112.64 0 50.831 38.953 92.16 86.835 92.16zM733.97 632.32h88.515c-2.089-13.271-3.236-27.156-2.99-40.96h-82.493c0.246 13.804-0.901 27.689-3.031 40.96zM870.777 536.842c-4.547 10.486-7.7 22.979-9.093 36.495-2.949 24.371-0.696 52.511 5.652 73.032l3.113 8.315c24.617 58.45 35.594 98.918 35.594 131.236 0 73.4-57.344 133.12-127.795 133.12s-127.795-59.72-127.795-133.12c0-32.317 10.977-72.786 36.495-133.652l2.089-5.53c6.472-20.89 8.724-49.029 5.775-73.728-1.393-13.189-4.547-25.682-8.97-35.963-10.486-23.47-20.521-49.316-29.778-76.759-3.645-10.691 2.089-22.323 12.82-25.928 10.772-3.645 22.364 2.089 25.969 12.82 8.888 26.255 18.432 50.872 28.467 73.359 4.014 9.257 6.799 19.374 8.97 29.86h91.914c2.212-10.527 4.997-20.726 9.052-30.065 42.516-95.068 67.871-199.311 67.871-278.774 0-103.834-18.104-164.25-47.759-223.642h-149.914c-4.547 9.789-16.015 14.5-26.092 10.445-10.527-4.137-15.688-16.056-11.551-26.583 1.475-3.604 3.154-7.004 6.431-13.476 3.482-6.963 10.568-11.346 18.35-11.346h175.309c7.619 0 14.623 4.26 18.145 11.018 34.857 66.683 58.040 135.332 58.040 253.583 0 84.951-26.706 195.379-71.311 295.281zM559.030-23.040h-175.964c-34.365 65.864-55.378 132.137-55.378 245.76 0 102.318 40.1 224.379 77.66 304.456 3.318 7.045 5.939 14.991 8.192 23.224h115.016c2.253-8.233 4.874-16.179 8.192-23.224 37.56-80.077 77.66-202.138 77.66-304.456 0-113.623-21.012-179.896-55.378-245.76zM471.048 919.040c56.443 0 102.4-45.957 102.4-102.4 0-29.041-11.51-68.035-37.274-126.444-2.335-5.325-4.342-11.018-6.144-16.916h-117.965c-1.802 5.898-3.809 11.592-6.144 16.916-25.764 58.409-37.274 97.403-37.274 126.444 0 56.443 45.957 102.4 102.4 102.4zM419.971 632.32h102.154c-1.311-13.558-1.434-27.361-0.451-40.96h-101.253c0.983 13.599 0.86 27.402-0.451 40.96zM573.653 673.69c28.18 63.857 40.755 107.971 40.755 142.95 0 79.053-64.307 143.36-143.36 143.36s-143.36-64.307-143.36-143.36c0-34.98 12.575-79.094 40.755-142.95 15.565-35.348 15.524-95.683-0.164-129.147-19.169-40.796-81.551-184.607-81.551-321.823 0-128.451 25.272-200.827 66.028-275.988 3.564-6.595 10.486-10.732 17.981-10.732h200.622c7.496 0 14.418 4.137 17.981 10.732 40.755 75.162 66.028 147.538 66.028 275.988 0 137.216-62.382 281.027-81.551 321.823-15.688 33.464-15.729 93.798-0.164 129.147z" />
<glyph unicode="&#xe919;" glyph-name="bowling-ball" d="M280.728 515.441c-7.987-7.987-20.972-7.987-28.959 0s-7.987 20.972 0 28.959c4.014 4.014 9.257 5.98 14.459 5.98 5.243 0 10.486-1.966 14.5-5.98 7.987-7.987 7.987-20.972 0-28.959zM222.81 573.358c-23.962-23.962-23.962-62.915 0-86.876 11.96-12.001 27.689-17.981 43.418-17.981 15.77 0 31.498 5.98 43.459 17.981 23.962 23.962 23.962 62.915 0 86.876s-62.915 23.962-86.876 0zM415.609 708.239c4.014 4.014 9.257 5.98 14.459 5.98 5.243 0 10.486-1.966 14.5-5.98 7.987-7.987 7.987-20.972 0-28.959s-20.972-7.987-28.959 0c-7.987 7.987-7.987 20.972 0 28.959zM473.526 650.322c23.962 23.962 23.962 62.915 0 86.876s-62.915 23.962-86.876 0c-23.962-23.962-23.962-62.915 0-86.876 11.96-12.001 27.689-17.981 43.418-17.981 15.77 0 31.498 5.98 43.459 17.981zM485.528 474.481c-7.987-7.987-20.972-7.987-28.959 0s-7.987 20.972 0 28.959c4.014 4.014 9.257 5.98 14.459 5.98 5.243 0 10.486-1.966 14.5-5.98 7.987-7.987 7.987-20.972 0-28.959zM427.61 532.398c-23.962-23.962-23.962-62.915 0-86.876 11.96-12.001 27.689-17.981 43.418-17.981 15.77 0 31.498 5.98 43.459 17.981 23.962 23.962 23.962 62.915 0 86.876s-62.915 23.962-86.876 0zM845.074 114.934c-183.665-183.665-482.468-183.665-666.132 0s-183.665 482.468 0 666.132c183.624 183.665 482.468 183.624 666.132 0 183.665-183.665 183.665-482.468 0-666.132zM874.033 810.025c-199.639 199.598-524.411 199.598-724.050 0s-199.639-524.452 0-724.050c99.82-99.82 230.892-149.709 362.004-149.709 131.154 0 262.226 49.889 362.045 149.709 199.639 199.598 199.639 524.452 0 724.050z" />
<glyph unicode="&#xe91a;" glyph-name="suitcase-2" d="M983.048 79.36c0-11.264-9.175-20.48-20.48-20.48h-61.44v614.4h61.44c11.305 0 20.48-9.216 20.48-20.48v-573.44zM40.968 79.36v573.44c0 11.264 9.175 20.48 20.48 20.48h61.44v-614.4h-61.44c-11.305 0-20.48 9.216-20.48 20.48v0zM327.688 816.64c0 11.264 9.175 20.48 20.48 20.48h327.68c11.305 0 20.48-9.216 20.48-20.48v-102.4h-368.64v102.4zM819.208 58.88v614.4h40.96v-614.4h-40.96zM163.848 58.88v614.4h40.96v-614.4h-40.96zM245.768 673.28h532.48v-614.4h-532.48v614.4zM962.568 714.24h-225.28v102.4c0 33.874-27.566 61.44-61.44 61.44h-327.68c-33.874 0-61.44-27.566-61.44-61.44v-102.4h-225.28c-33.874 0-61.44-27.566-61.44-61.44v-573.44c0-33.874 27.566-61.44 61.44-61.44h901.12c33.874 0 61.44 27.566 61.44 61.44v573.44c0 33.874-27.566 61.44-61.44 61.44v0z" />
<glyph unicode="&#xe91b;" glyph-name="suitcase-1" horiz-adv-x="614" d="M204.808 243.2v0c0-11.305 9.175-20.48 20.48-20.48h163.84c11.305 0 20.48 9.175 20.48 20.48s-9.175 20.48-20.48 20.48h-163.84c-11.305 0-20.48-9.175-20.48-20.48zM122.888 99.84v204.8h368.64v-204.8h-368.64zM512.008 345.6h-409.6c-11.305 0-20.48-9.175-20.48-20.48v-245.76c0-11.305 9.175-20.48 20.48-20.48h409.6c11.305 0 20.48 9.175 20.48 20.48v245.76c0 11.305-9.175 20.48-20.48 20.48v0zM552.968 17.92h-491.52c-11.305 0-20.48 9.216-20.48 20.48v471.040h532.48v-471.040c0-11.264-9.175-20.48-20.48-20.48v0zM61.448 673.28h491.52c11.305 0 20.48-9.216 20.48-20.48v-102.4h-532.48v102.4c0 11.264 9.175 20.48 20.48 20.48v0zM286.728 714.24v204.8h40.96v-204.8h-40.96zM552.968 714.24h-184.32v204.8h61.44c11.305 0 20.48 9.175 20.48 20.48s-9.175 20.48-20.48 20.48h-245.76c-11.305 0-20.48-9.175-20.48-20.48s9.175-20.48 20.48-20.48h61.44v-204.8h-184.32c-33.874 0-61.44-27.566-61.44-61.44v-614.4c0-33.874 27.566-61.44 61.44-61.44h20.48v-20.48c0-11.305 9.175-20.48 20.48-20.48s20.48 9.175 20.48 20.48v20.48h368.64v-20.48c0-11.305 9.175-20.48 20.48-20.48s20.48 9.175 20.48 20.48v20.48h20.48c33.874 0 61.44 27.566 61.44 61.44v614.4c0 33.874-27.566 61.44-61.44 61.44v0z" />
<glyph unicode="&#xe91c;" glyph-name="hand-truck" horiz-adv-x="778" d="M491.528 325.12v0c0 11.305-9.175 20.48-20.48 20.48h-81.92c-11.305 0-20.48-9.175-20.48-20.48s9.175-20.48 20.48-20.48h81.92c11.305 0 20.48 9.175 20.48 20.48zM389.128 427.52v0c-11.305 0-20.48-9.175-20.48-20.48s9.175-20.48 20.48-20.48h163.84c11.305 0 20.48 9.175 20.48 20.48s-9.175 20.48-20.48 20.48h-163.84zM327.688 550.4v163.84h163.84v-163.84h-163.84zM655.368 181.76h-327.68v327.68h327.68v-327.68zM307.208 140.8h368.64c11.305 0 20.48 9.175 20.48 20.48v368.64c0 11.305-9.175 20.48-20.48 20.48h-143.36v184.32c0 11.305-9.175 20.48-20.48 20.48h-204.8c-11.305 0-20.48-9.175-20.48-20.48v-573.44c0-11.305 9.175-20.48 20.48-20.48v0zM143.368-23.040c-56.443 0-102.4 45.916-102.4 102.4s45.957 102.4 102.4 102.4c56.443 0 102.4-45.916 102.4-102.4s-45.957-102.4-102.4-102.4v0zM757.768 58.88h-473.129c0.983 6.758 2.089 13.476 2.089 20.48 0 56.975-33.669 105.882-81.92 128.942v608.338c0 79.053-64.307 143.36-143.36 143.36-11.305 0-20.48-9.175-20.48-20.48s9.175-20.48 20.48-20.48c56.443 0 102.4-45.916 102.4-102.4v-596.009c-6.758 1.024-13.476 2.089-20.48 2.089-79.053 0-143.36-64.307-143.36-143.36s64.307-143.36 143.36-143.36c56.975 0 105.882 33.669 128.983 81.92h485.417c11.305 0 20.48 9.175 20.48 20.48s-9.175 20.48-20.48 20.48v0z" />
<glyph unicode="&#xe91d;" glyph-name="car" d="M655.368 325.12c0-11.305-9.175-20.48-20.48-20.48h-245.76c-11.305 0-20.48 9.175-20.48 20.48s9.175 20.48 20.48 20.48h245.76c11.305 0 20.48-9.175 20.48-20.48v0zM655.368 407.040c0-11.305-9.175-20.48-20.48-20.48h-245.76c-11.305 0-20.48 9.175-20.48 20.48s9.175 20.48 20.48 20.48h245.76c11.305 0 20.48-9.175 20.48-20.48v0zM819.208 345.6c-22.569 0-40.96 18.35-40.96 40.96s18.391 40.96 40.96 40.96c22.569 0 40.96-18.35 40.96-40.96s-18.391-40.96-40.96-40.96v0zM819.208 468.48c-45.179 0-81.92-36.741-81.92-81.92s36.741-81.92 81.92-81.92c45.179 0 81.92 36.741 81.92 81.92s-36.741 81.92-81.92 81.92v0zM204.808 345.6c-22.569 0-40.96 18.35-40.96 40.96s18.391 40.96 40.96 40.96c22.569 0 40.96-18.35 40.96-40.96s-18.391-40.96-40.96-40.96v0zM204.808 468.48c-45.179 0-81.92-36.741-81.92-81.92s36.741-81.92 81.92-81.92c45.179 0 81.92 36.741 81.92 81.92s-36.741 81.92-81.92 81.92v0zM983.048 243.2c0-11.264-9.175-20.48-20.48-20.48h-901.12c-11.305 0-20.48 9.216-20.48 20.48v204.8c0 47.555 32.727 87.286 76.759 98.755 8.602 2.335 17.244 3.645 25.641 3.645h737.28c8.397 0 17.039-1.311 25.641-3.645 44.032-11.469 76.759-51.2 76.759-98.755v-204.8zM901.128 99.84c0-22.61-18.391-40.96-40.96-40.96s-40.96 18.35-40.96 40.96v81.92h81.92v-81.92zM204.808 99.84c0-22.61-18.391-40.96-40.96-40.96s-40.96 18.35-40.96 40.96v81.92h81.92v-81.92zM138.781 591.278l57.672 230.359c2.212 9.134 10.363 15.483 19.825 15.483h591.462c9.462 0 17.613-6.349 19.866-15.606l57.631-230.236c-1.516 0.041-3.031 0.082-4.588 0.082h-737.28c-1.556 0-3.072-0.041-4.588-0.082v0zM929.759 582.144l-62.382 249.16c-6.717 27.525-31.252 46.776-59.638 46.776h-591.462c-28.385 0-52.92-19.251-59.597-46.653l-62.423-249.283c-54.804-20.152-94.249-72.417-94.249-134.144v-204.8c0-33.874 27.566-61.44 61.44-61.44h20.48v-81.92c0-45.179 36.741-81.92 81.92-81.92s81.92 36.741 81.92 81.92v81.92h532.48v-81.92c0-45.179 36.741-81.92 81.92-81.92s81.92 36.741 81.92 81.92v81.92h20.48c33.874 0 61.44 27.566 61.44 61.44v204.8c0 61.727-39.444 113.992-94.249 134.144v0z" />
<glyph unicode="&#xe91e;" glyph-name="helicopter" d="M655.368 183.12c6.799-0.86 13.64-1.352 20.48-1.352h143.36v-81.92h-163.84v83.272zM457.941 436.171c-12.984 49.234-51.446 87.941-100.393 101.048-32.44 8.724-63.16 13.189-91.3 13.189h-63.529c1.352 6.636 2.089 13.476 2.089 20.48s-0.737 13.844-2.089 20.48h432.169c22.2 0 42.271-1.311 61.44-3.195v-58.245c0-74.957 32.768-200.786 243.671-221.921-10.527-81.101-90.563-85.197-100.311-85.279h-163.84c-10.977 0-21.955 1.638-32.809 4.424-0.983 0.451-2.13 0.451-3.195 0.737-82.412 23.101-158.638 120.054-181.903 208.282v0zM102.408 509.448c-33.874 0-61.44 27.566-61.44 61.44s27.566 61.44 61.44 61.44c22.569 0 42.107-12.37 52.797-30.515 0.041-0.082 0-0.205 0.082-0.287 2.662-4.547 4.588-9.298 6.021-14.090 0.123-0.532 0.328-1.024 0.492-1.556 1.311-4.915 2.048-9.912 2.048-14.991s-0.737-10.076-2.048-14.991c-0.164-0.532-0.369-1.065-0.492-1.556-1.434-4.833-3.359-9.544-6.021-14.090-0.082-0.082-0.041-0.205-0.082-0.287-10.691-18.145-30.228-30.515-52.797-30.515v0zM614.408 652.808c0 11.264 9.175 20.48 20.48 20.48s20.48-9.216 20.48-20.48v-20.48h-40.96v20.48zM941.515 348.885c-167.772 17.695-204.227 107.151-204.227 181.043v52.552c166.543-31.007 200.049-139.878 204.227-233.595v0zM989.151 134.91c-1.475-1.434-36.987-35.062-108.503-35.062h-20.48v83.436c51.159 7.332 122.88 42.68 122.88 141.844 0 184.812-96.584 286.72-286.72 304.21v23.47c0 26.665-17.162 49.193-40.96 57.672v44.728h348.16c11.305 0 20.48 9.134 20.48 20.48 0 11.305-9.175 20.48-20.48 20.48h-348.16v20.48c0 11.305-9.175 20.48-20.48 20.48s-20.48-9.175-20.48-20.48v-20.48h-348.16c-11.305 0-20.48-9.175-20.48-20.48 0-11.346 9.175-20.48 20.48-20.48h348.16v-44.728c-23.798-8.479-40.96-31.007-40.96-57.672v-20.48h-389.652c-18.678 24.699-48.087 40.96-81.388 40.96-56.443 0-102.4-45.916-102.4-102.4s45.957-102.4 102.4-102.4c33.3 0 62.71 16.22 81.388 40.96h82.452c24.535 0 51.692-3.973 80.691-11.796 34.816-9.339 62.136-36.864 71.393-71.885 25.436-96.666 104.653-198.779 196.076-232.407v-93.512h-102.4c-11.305 0-20.48-9.175-20.48-20.48 0-11.346 9.175-20.48 20.48-20.48h368.64c89.375 0 135.455 45.015 137.38 46.94 7.946 7.987 7.905 20.767 0.041 28.795-7.905 8.028-20.849 8.11-28.918 0.287v0z" />
<glyph unicode="&#xe91f;" glyph-name="boat" d="M922.747 107.401c-33.137-55.214-93.716-89.498-158.065-89.498h-505.364c-64.348 0-124.928 34.284-158.065 89.498l-44.605 74.342h910.705l-44.605-74.342zM129.188 345.584c71.68 244.204 281.068 440.771 362.332 509.911v-509.911h-362.332zM1021.338 212.341c-3.645 6.431-10.445 10.363-17.818 10.363h-471.040v675.84c0 3.564-1.147 6.758-2.744 9.708-0.41 0.737-0.901 1.393-1.434 2.13-1.638 2.253-3.686 4.137-6.103 5.571-0.41 0.246-0.573 0.737-1.024 0.942-0.164 0.082-0.369 0-0.492 0.082-2.662 1.27-5.571 2.048-8.684 2.048-0.451 0-0.778-0.164-1.229-0.205-0.655-0.041-1.229-0.287-1.884-0.41-2.867-0.451-5.407-1.393-7.7-2.908-0.451-0.246-1.024-0.205-1.475-0.532-13.599-10.24-334.438-253.952-417.178-584.868-1.516-6.144-0.164-12.616 3.727-17.572s9.83-7.905 16.138-7.905h389.12v-81.92h-471.040c-7.373 0-14.172-3.932-17.818-10.363s-3.523-14.295 0.246-20.603l63.242-105.39c40.509-67.461 114.524-109.404 193.167-109.404h505.364c78.684 0 152.699 41.943 193.167 109.404l63.242 105.39c3.809 6.308 3.891 14.172 0.246 20.603v0z" />
<glyph unicode="&#xe920;" glyph-name="rocket" horiz-adv-x="860" d="M430.088 400.22c-33.3 0-61.44 40.632-61.44 88.76 0 48.087 28.14 88.719 61.44 88.719s61.44-40.632 61.44-88.719c0-48.128-28.14-88.76-61.44-88.76zM430.088 618.66c-56.443 0-102.4-58.163-102.4-129.679 0-71.557 45.957-129.72 102.4-129.72s102.4 58.163 102.4 129.72c0 71.516-45.957 129.679-102.4 129.679zM696.127 227.901c-1.434 57.426-8.929 122.020-22.282 192.43 93.839-35.43 130.417-199.762 141.435-310.6-29.245 38.216-71.352 86.18-119.153 118.17zM593.359 140.82h-326.533c-34.161 0-61.972 29.041-62.013 65.741 0 5.366 0.164 10.895 0.287 16.343 0.287 13.804 2.089 45.916 2.212 47.432 3.973 52.552 12.493 111.165 25.313 172.646 0.082 0.369-0.082 0.737 0 1.106 50.176 240.435 154.706 474.972 197.468 474.972 42.721 0 147.292-234.537 197.468-475.341 0.041-0.246-0.082-0.492 0-0.737 12.575-60.293 20.931-117.719 24.986-169.452 0.246-3.154 2.253-36.946 2.499-49.971 0.123-6.021 0.328-12.042 0.328-17.94-0.041-35.758-27.853-64.799-62.013-64.799zM430.092-12.82c-19.169 22.938-51.487 67.092-59.556 112.681h119.112c-8.069-45.588-40.387-89.743-59.556-112.681zM44.904 109.732c11.018 110.838 47.596 275.169 141.435 310.6-13.353-70.41-20.849-135.004-22.282-192.43-47.8-31.99-89.948-79.954-119.153-118.17zM664.383 464.609c-51.487 241.377-155.075 495.411-234.291 495.411-79.176 0-182.682-253.747-234.209-495.411-159.867-31.375-195.871-315.597-195.871-426.189 0-9.216 6.144-17.285 14.991-19.743 1.843-0.532 3.645-0.737 5.489-0.737 7.045 0 13.763 3.645 17.572 9.912 0.614 1.065 57.303 94.372 129.352 151.634 11.387-45.629 51.487-79.626 99.41-79.626h63.119c11.1-81.51 82.33-154.542 85.647-157.86 4.014-4.014 9.257-5.98 14.5-5.98s10.486 1.966 14.459 5.98c3.318 3.318 74.588 76.349 85.688 157.86h63.119c47.759 0 87.695 33.751 99.246 79.749 72.131-57.221 128.901-150.692 129.516-151.757 3.768-6.267 10.527-9.912 17.572-9.912 1.802 0 3.645 0.205 5.489 0.737 8.847 2.458 14.991 10.527 14.991 19.743 0 110.592-36.004 394.732-195.789 426.189z" />
<glyph unicode="&#xe921;" glyph-name="flame" horiz-adv-x="696" d="M637.608 197.661c-23.552-76.554-68.854-135.987-127.345-174.080 4.833 9.298 9.134 19.128 12.452 29.983 38.298 125.542-43.745 329.318-165.642 411.402-7.619 5.12-17.572 4.588-24.617-1.27-6.963-5.898-9.216-15.688-5.489-24.044 22.733-50.995-0.082-98.836-78.725-165.028-73.032-61.481-102.031-151.060-73.892-228.188 4.178-11.51 9.912-21.75 16.261-31.416-55.255 28.836-98.632 72.786-123.781 129.761-47.514 107.766-22.61 234.373 65.004 330.383 27.607 30.228 53.289 55.050 75.94 76.923 94.085 90.931 144.957 140.083 99.86 338.616 325.386-241.132 382.812-521.216 329.974-693.043zM212.812 60.486c-22.159 60.785 2.089 132.547 61.809 182.804 31.703 26.665 96.911 81.592 101.212 152.658 84.009-85.729 136.438-236.298 107.684-330.424-15.565-51.036-52.675-80.159-110.305-86.958-1.925-0.123-3.85-0.369-5.816-0.451-5.775-0.532-11.715-0.86-17.9-0.942-10.24 0.082-20.111 0.983-30.024 1.802-51.241 7.373-90.276 36.618-106.66 81.51zM285.68 956.445c-7.045 4.833-16.425 4.71-23.429-0.246-6.963-5.038-10.076-13.844-7.782-22.118 60.703-221.225 20.931-259.645-75.162-352.502-23.060-22.323-49.234-47.596-77.701-78.807-98.755-108.175-126.444-251.699-72.253-374.497 53.125-120.381 174.080-192.266 323.584-192.266 152.412 0 276.48 95.642 323.83 249.61 59.269 192.84-7.578 510.403-391.086 770.826z" />
<glyph unicode="&#xe922;" glyph-name="flower-pot" horiz-adv-x="614" d="M573.448 263.68h-532.48v40.96h532.48v-40.96zM454.623-23.040h-294.83l-54.804 245.76h404.439l-54.804-245.76zM176.833 534.467c-7.66-7.741-21.135-7.741-28.959 0-3.85 3.891-5.98 9.011-5.98 14.459 0 5.489 2.13 10.65 6.021 14.5 11.96 11.96 43.54 27.034 56.689 27.73-0.696-13.148-15.77-44.728-27.771-56.689v0zM102.408 673.28c-11.305 0-20.48 9.216-20.48 20.48s9.175 20.48 20.48 20.48c16.916 0 49.93-11.715 59.72-20.48-9.789-8.765-42.803-20.48-59.72-20.48v0zM141.894 838.595c0 5.448 2.13 10.568 6.021 14.459 3.891 3.85 9.011 5.98 14.459 5.98 5.489 0 10.65-2.13 14.459-5.98h0.041c11.96-11.96 27.034-43.54 27.73-56.689-13.148 0.696-44.728 15.77-56.689 27.73-3.891 3.85-6.021 9.011-6.021 14.5v0zM307.208 919.040c11.305 0 20.48-9.216 20.48-20.48 0-16.916-11.715-49.889-20.48-59.72-8.765 9.83-20.48 42.803-20.48 59.72 0 11.264 9.175 20.48 20.48 20.48v0zM437.584 853.053c3.809 3.85 8.97 5.98 14.459 5.98 5.448 0 10.568-2.13 14.5-5.98 3.85-3.891 5.98-9.011 5.98-14.459 0-5.489-2.13-10.65-6.021-14.5-11.96-11.96-43.54-27.034-56.689-27.73 0.696 13.148 15.77 44.728 27.771 56.689v0zM512.008 714.24c11.305 0 20.48-9.216 20.48-20.48s-9.175-20.48-20.48-20.48c-16.916 0-49.93 11.715-59.72 20.48 9.789 8.765 42.803 20.48 59.72 20.48v0zM472.523 548.925c0-5.448-2.13-10.568-6.021-14.459-7.741-7.782-21.258-7.741-28.918 0h-0.041c-11.96 11.96-27.034 43.54-27.73 56.689 13.148-0.696 44.728-15.77 56.689-27.73 3.891-3.85 6.021-9.011 6.021-14.5v0zM204.808 693.76c0 56.484 45.957 102.4 102.4 102.4s102.4-45.916 102.4-102.4c0-56.484-45.957-102.4-102.4-102.4s-102.4 45.916-102.4 102.4v0zM307.208 468.48c-11.305 0-20.48 9.216-20.48 20.48 0 16.916 11.715 49.889 20.48 59.72 8.765-9.83 20.48-42.803 20.48-59.72 0-11.264-9.175-20.48-20.48-20.48v0zM593.928 345.6h-266.24v85.688c23.798 8.479 40.96 31.007 40.96 57.672 0 13.476-6.349 44.114-19.292 68.485 8.52 2.662 16.671 5.98 24.412 10.117 1.229-3.932 2.13-7.66 3.85-11.878 7.987-19.497 20.398-39.649 31.007-50.176 11.592-11.592 26.993-17.981 43.418-17.981 16.384 0 31.826 6.39 43.418 17.981s17.981 26.952 18.022 43.418c0 16.384-6.39 31.867-18.022 43.459-9.503 9.544-35.676 26.706-62.054 34.775 4.096 7.782 7.455 15.933 10.117 24.453 24.33-12.943 55.009-19.292 68.485-19.292 33.874 0 61.44 27.566 61.44 61.44s-27.566 61.44-61.44 61.44c-13.476 0-44.155-6.349-68.485-19.292-2.621 8.397-5.898 16.466-9.953 24.125 26.337 8.069 52.388 25.559 61.891 35.103 11.633 11.592 18.022 27.075 18.022 43.459-0.041 16.466-6.431 31.826-18.022 43.418-23.183 23.183-63.734 23.183-86.835 0-10.609-10.527-23.020-30.679-31.007-50.176-1.72-4.219-2.621-7.946-3.85-11.878-7.741 4.137-15.892 7.455-24.412 10.117 12.943 24.371 19.292 55.009 19.292 68.485 0 33.874-27.566 61.44-61.44 61.44s-61.44-27.566-61.44-61.44c0-13.476 6.349-44.114 19.292-68.485-8.52-2.662-16.671-5.98-24.412-10.117-1.229 3.932-2.13 7.66-3.85 11.878-7.987 19.497-20.398 39.649-31.007 50.176-23.183 23.183-63.652 23.183-86.835 0-11.592-11.592-17.981-26.952-18.022-43.418 0-16.384 6.39-31.867 18.022-43.459 9.503-9.544 35.553-27.034 61.891-35.103-4.055-7.66-7.332-15.729-9.953-24.125-24.33 12.943-55.009 19.292-68.485 19.292-33.874 0-61.44-27.566-61.44-61.44s27.566-61.44 61.44-61.44c13.476 0 44.155 6.349 68.485 19.292 2.662-8.52 5.98-16.671 10.117-24.412-26.378-8.069-52.552-25.272-62.054-34.816-11.633-11.592-18.022-27.075-18.022-43.459 0.041-16.466 6.431-31.826 18.022-43.418s27.034-17.981 43.418-17.981c16.425 0 31.867 6.39 43.418 17.981 10.609 10.527 23.020 30.679 31.007 50.176 1.72 4.219 2.621 7.946 3.85 11.878 7.741-4.137 15.892-7.455 24.412-10.117-12.943-24.371-19.292-55.009-19.292-68.485 0-26.665 17.162-49.193 40.96-57.672v-85.688h-266.24c-11.305 0-20.48-9.175-20.48-20.48v-81.92c0-11.305 9.175-20.48 20.48-20.48h42.598l60.293-270.664c2.089-9.38 10.404-16.056 19.988-16.056h327.68c9.585 0 17.9 6.676 19.988 16.056l60.293 270.664h42.598c11.305 0 20.48 9.175 20.48 20.48v81.92c0 11.305-9.175 20.48-20.48 20.48v0zM286.728 693.76c0 11.264 9.175 20.48 20.48 20.48s20.48-9.216 20.48-20.48c0-11.264-9.175-20.48-20.48-20.48s-20.48 9.216-20.48 20.48v0zM368.648 693.76c0 33.874-27.566 61.44-61.44 61.44s-61.44-27.566-61.44-61.44c0-33.874 27.566-61.44 61.44-61.44s61.44 27.566 61.44 61.44v0z" />
<glyph unicode="&#xe923;" glyph-name="gavel" d="M971.108 458.981l-270.828-270.828c-16.015-15.974-42.025-16.015-58.040 0l-2.458 2.458c-15.974 16.015-15.974 42.025 0 58.040l270.172 269.967c0.287 0.246 0.451 0.614 0.696 0.86 7.7 7.7 17.736 11.674 28.099 11.674 11.182 0 22.815-4.588 32.358-14.131 16.015-16.015 16.015-42.025 0-58.040v0zM448.049 384.025c6.636-6.636 13.394-13.148 20.439-19.866-125.42-155.361-298.639-348.611-318.587-368.599-24.945-24.863-65.413-24.863-90.317 0-24.904 24.904-24.904 65.413 0 90.317 19.948 19.948 213.197 193.167 368.599 318.587 6.513-6.881 13.148-13.681 19.825-20.398l0.041-0.041zM600.338 805.544c50.586-35.594 99.574-76.964 145.9-123.331 46.326-46.285 87.736-95.314 123.331-145.859l-246.661-246.661c-50.504 35.553-99.533 76.964-145.9 123.29-46.367 46.408-87.777 95.396-123.331 145.9l246.661 246.661zM254.636 575.799l-2.499 2.458c-15.974 15.974-15.974 42.025 0 57.999l270.868 270.828c7.7 7.7 17.736 11.715 28.14 11.715 11.182 0 22.774-4.628 32.317-14.172 16.015-16.015 16.015-42.025 0-58.040l-270.172-269.926c-0.287-0.287-0.41-0.655-0.696-0.901-16.015-15.974-42.025-15.974-57.958 0.041v0zM997.569 548.438c-26.132 26.173-65.577 30.515-96.584 13.885-36.536 51.61-78.561 101.663-125.788 148.849-47.227 47.227-97.28 89.252-148.89 125.829 16.548 31.089 11.837 70.861-16.343 99.041-31.908 31.949-83.927 31.949-115.917 0l-270.868-270.828c-31.949-31.949-31.949-83.968 0.082-115.999l2.417-2.417c15.974-15.974 36.987-23.962 57.958-23.962 13.353 0 26.583 3.604 38.666 10.076 23.716-33.505 49.807-66.314 78.193-98.181-156.14-126.157-349.716-299.745-369.869-319.898-40.878-40.837-40.878-107.356 0-148.234 20.439-20.439 47.268-30.679 74.097-30.679s53.699 10.24 74.138 30.679c20.152 20.193 193.7 213.77 319.857 369.91 31.867-28.426 64.676-54.518 98.222-78.234-16.671-31.048-12.288-70.451 13.844-96.543l2.499-2.54c15.974-15.974 36.987-24.003 57.999-24.003 20.972 0 41.984 8.028 57.958 24.003l270.828 270.828c31.949 31.949 31.949 83.968-2.499 118.415v0z" />
<glyph unicode="&#xe924;" glyph-name="weights-of-justice" horiz-adv-x="942" d="M778.248 386.56c-59.351 0-108.995 35.226-120.422 81.92h240.845c-11.428-46.694-61.071-81.92-120.422-81.92v0zM778.248 714.772l73.359-205.332h-146.719l73.359 205.332zM90.489 386.56l73.359 205.332 73.359-205.332h-146.719zM163.848 263.68c-59.351 0-108.995 35.226-120.422 81.92h240.845c-11.428-46.694-61.071-81.92-120.422-81.92v0zM921.608 509.44h-26.542l-96.379 269.926 85.975 17.203c11.1 2.212 18.268 12.984 16.056 24.084s-12.82 18.35-24.084 16.056l-385.106-77.005v179.814c0 11.305-9.175 20.48-20.48 20.48s-20.48-9.175-20.48-20.48v-188.006l-393.134-78.643c-11.1-2.212-18.268-12.984-16.056-24.084 1.925-9.748 10.486-16.466 20.070-16.466 1.311 0 2.662 0.123 4.014 0.41l74.834 14.95-93.266-261.12h-26.542c-11.305 0-20.48-9.175-20.48-20.48 0-79.053 73.482-143.36 163.84-143.36s163.84 64.307 163.84 143.36c0 11.305-9.175 20.48-20.48 20.48h-26.542l-96.379 269.926 266.281 53.248v-732.774h-143.36c-11.305 0-20.48-9.175-20.48-20.48s9.175-20.48 20.48-20.48h327.68c11.305 0 20.48 9.175 20.48 20.48s-9.175 20.48-20.48 20.48h-143.36v740.966l263.168 52.634-93.266-261.12h-26.542c-11.305 0-20.48-9.175-20.48-20.48 0-79.053 73.482-143.36 163.84-143.36s163.84 64.307 163.84 143.36c0 11.305-9.175 20.48-20.48 20.48v0z" />
<glyph unicode="&#xe925;" glyph-name="glasses" d="M798.728 304.64c-122.307 0-184.32 62.013-184.32 184.32 0 100.762 137.462 102.4 143.36 102.4 127.468 0 184.32-44.237 184.32-143.36 0-124.723-89.825-143.36-143.36-143.36zM225.288 304.64c-53.535 0-143.36 18.637-143.36 143.36 0 99.123 56.852 143.36 184.32 143.36 5.898 0 143.36-1.638 143.36-102.4 0-122.307-62.013-184.32-184.32-184.32zM1003.528 550.4h-46.94c-33.71 54.026-99.697 81.92-198.82 81.92-46.572 0-123.249-16.179-161.3-68.936-24.248 17.859-53.78 27.976-84.46 27.976s-60.211-10.117-84.46-27.976c-38.052 52.756-114.729 68.936-161.3 68.936-99.123 0-165.11-27.894-198.82-81.92h-46.94c-11.305 0-20.48-9.175-20.48-20.48s9.175-20.48 20.48-20.48h29.245c-5.243-18.596-8.765-38.625-8.765-61.44 0-115.425 68.895-184.32 184.32-184.32 196.035 0 225.28 141.148 225.28 225.28 0 13.148-1.761 25.068-4.751 36.045 36.741 31.171 95.642 31.171 132.383 0-2.99-10.977-4.751-22.897-4.751-36.045 0-84.132 29.245-225.28 225.28-225.28 115.425 0 184.32 68.895 184.32 184.32 0 22.815-3.523 42.844-8.765 61.44h29.245c11.305 0 20.48 9.175 20.48 20.48s-9.175 20.48-20.48 20.48z" />
<glyph unicode="&#xe926;" glyph-name="icecream" horiz-adv-x="614" d="M491.528 550.4h-368.64c-45.179 0-81.92 36.741-81.92 81.92 0 39.649 28.426 73.482 67.625 80.445 5.489 0.942 10.363 4.137 13.435 8.806 3.113 4.628 4.178 10.363 2.99 15.77-1.434 6.431-2.13 12.247-2.13 17.859 0 40.673 30.638 75.407 71.229 80.773 7.7 1.024 14.172 6.267 16.671 13.64 14.254 41.533 53.002 69.427 96.42 69.427s82.166-27.894 96.42-69.427c2.499-7.373 8.97-12.616 16.671-13.64 40.591-5.366 71.229-40.1 71.229-80.773 0-5.612-0.696-11.428-2.13-17.859-1.188-5.407-0.123-11.141 2.99-15.77 3.072-4.669 7.946-7.864 13.435-8.806 39.199-6.963 67.625-40.796 67.625-80.445 0-45.179-36.741-81.92-81.92-81.92v0zM406.29 377.876l-131.564 131.564h169.165l-37.601-131.564zM307.208 31.027l-73.277 256.492 113.992-113.992-40.714-142.5zM216.809 509.44l176.62-176.62-32.645-114.237-149.996 150.036-40.264 140.82h46.285zM532.283 748.073c0.123 2.376 0.205 4.751 0.205 7.127 0 56.975-39.895 106.168-94.577 119.112-22.774 51.732-73.851 85.688-130.703 85.688s-107.93-33.956-130.703-85.688c-54.682-12.943-94.577-62.136-94.577-119.112 0-2.376 0.082-4.751 0.205-7.127-48.579-16.998-82.125-62.915-82.125-115.753 0-67.748 55.132-122.88 122.88-122.88h5.038l159.58-558.572c2.54-8.806 10.568-14.868 19.702-14.868s17.162 6.062 19.702 14.868l62.996 220.447c0.205 0.492 0.246 1.024 0.41 1.516l45.138 157.983c0.082 0.205 0.123 0.41 0.205 0.655l50.831 177.971h5.038c67.748 0 122.88 55.132 122.88 122.88 0 52.838-33.546 98.755-82.125 115.753v0z" />
<glyph unicode="&#xe927;" glyph-name="apple" horiz-adv-x="778" d="M286.728 570.88c0-11.305-9.175-20.48-20.48-20.48-53.371 0-103.383-42.926-127.386-109.363-3.031-8.356-10.854-13.517-19.251-13.517-2.335 0-4.669 0.369-6.963 1.229-10.65 3.85-16.138 15.565-12.288 26.214 29.901 82.862 95.027 136.397 165.888 136.397 11.305 0 20.48-9.175 20.48-20.48zM512.008-23.040c-29.901 0-69.181 24.003-107.807 65.905-3.891 4.178-9.339 6.595-15.073 6.595s-11.182-2.417-15.073-6.595c-38.625-41.902-77.906-65.905-107.807-65.905-126.321 0-225.28 161.915-225.28 368.64 0 179.487 114.524 286.72 225.28 286.72 39.854 0 76.759-14.049 109.691-41.697 7.66-6.39 18.719-6.39 26.378 0 32.932 27.648 69.837 41.697 109.691 41.697 110.756 0 225.28-107.233 225.28-286.72 0-206.725-98.959-368.64-225.28-368.64zM573.448 919.040c0-90.358-73.482-163.84-163.84-163.84 0 90.358 73.482 163.84 163.84 163.84zM512.008 673.28c-37.151 0-71.926-10.199-104.12-29.245-1.556 18.514-4.71 43.336-10.854 71.27 4.137-0.532 8.274-1.065 12.575-1.065 112.927 0 204.8 91.873 204.8 204.8 0 5.243-0.614 10.281-1.311 15.36l-0.655 5.325c-1.024 9.667-8.643 17.285-18.309 18.309l-5.325 0.655c-5.079 0.696-10.117 1.311-15.36 1.311-99.86 0-182.968-71.926-200.95-166.625-19.538 46.408-49.152 91.75-94.904 122.225-9.462 6.267-22.159 3.768-28.385-5.693-6.267-9.421-3.727-22.118 5.693-28.385 83.108-55.419 105.472-175.636 111.493-234.988-31.048 17.49-64.512 26.747-100.147 26.747-130.867 0-266.24-122.552-266.24-327.68 0-233.513 114.442-409.6 266.24-409.6 37.478 0 80.568 22.446 122.88 63.611 42.312-41.165 85.402-63.611 122.88-63.611 151.798 0 266.24 176.087 266.24 409.6 0 205.128-135.373 327.68-266.24 327.68z" />
<glyph unicode="&#xe928;" glyph-name="burger" d="M403.608 749.199c7.987-7.987 7.987-20.972 0-28.959l-40.96-40.96c-4.014-4.014-9.257-6.021-14.5-6.021-5.202 0-10.445 2.007-14.459 6.021-7.987 7.987-7.987 20.972 0 28.959l40.96 40.96c7.987 7.987 20.972 7.987 28.959 0v0zM854.168 667.279c7.987-7.987 7.987-20.972 0-28.959-4.014-4.014-9.257-6.021-14.5-6.021-5.202 0-10.445 2.007-14.459 6.021l-40.96 40.96c-7.987 7.987-7.987 20.972 0 28.959s20.972 7.987 28.959 0l40.96-40.96zM690.328 667.279c7.987-7.987 7.987-20.972 0-28.959l-40.96-40.96c-4.014-4.014-9.257-6.021-14.5-6.021-5.202 0-10.445 2.007-14.459 6.021-7.987 7.987-7.987 20.972 0 28.959l40.96 40.96c7.987 7.987 20.972 7.987 28.959 0v0zM239.768 626.319c7.987-7.987 7.987-20.972 0-28.959-4.014-4.014-9.257-6.021-14.5-6.021-5.202 0-10.445 2.007-14.459 6.021l-40.96 40.96c-7.987 7.987-7.987 20.972 0 28.959s20.972 7.987 28.959 0l40.96-40.96zM567.448 749.199c7.987-7.987 7.987-20.972 0-28.959-4.014-4.014-9.257-6.021-14.5-6.021-5.202 0-10.445 2.007-14.459 6.021l-40.96 40.96c-7.987 7.987-7.987 20.972 0 28.959s20.972 7.987 28.959 0l40.96-40.96zM-0.012 304.62c0 45.22 36.741 81.92 81.92 81.92h287.949c11.346 0 20.48-9.134 20.48-20.48 0-11.305-9.134-20.48-20.48-20.48h-287.949c-22.569 0-40.96-18.35-40.96-40.96 0-22.569 18.391-40.96 40.96-40.96h860.16c22.61 0 40.96 18.391 40.96 40.96 0 22.61-18.35 40.96-40.96 40.96h-150.282c-11.346 0-20.48 9.175-20.48 20.48 0 11.346 9.134 20.48 20.48 20.48h150.282c45.22 0 81.92-36.7 81.92-81.92 0-45.179-36.7-81.92-81.92-81.92h-860.16c-45.179 0-81.92 36.741-81.92 81.92v0zM962.548 468.46c11.346 0 20.48-9.134 20.48-20.48 0-11.305-9.134-20.48-20.48-20.48h-196.28l-116.9-116.859c-3.932-3.932-9.175-6.021-14.5-6.021-3.113 0-6.226 0.737-9.134 2.171l-241.459 120.709h-322.847c-11.305 0-20.48 9.175-20.48 20.48 0 11.346 9.175 20.48 20.48 20.48h327.68c3.195 0 6.349-0.737 9.175-2.13l232.571-116.285 112.435 112.435c3.85 3.85 9.052 5.98 14.459 5.98h204.8zM921.588 58.86h-819.2c-33.874 0-61.44 27.566-61.44 61.44 0 11.305 9.216 20.48 20.48 20.48h901.12c11.305 0 20.48-9.175 20.48-20.48 0-33.874-27.525-61.44-61.44-61.44v0zM962.548 181.74h-901.12c-33.874 0-61.44-27.525-61.44-61.44 0-56.443 45.957-102.4 102.4-102.4h819.2c56.484 0 102.4 45.957 102.4 102.4 0 33.915-27.525 61.44-61.44 61.44v0zM98.701 687.268c83.354 92.447 241.705 149.832 413.286 149.832 171.377 0 329.646-57.262 413.041-149.504 38.093-42.148 57.958-89.252 57.999-137.216h-942.039c0.041 47.841 19.784 94.822 57.713 136.888v0zM21.533 509.42h980.337c5.12 0 10.732 2.54 14.5 5.98 3.686 3.4 6.021 8.069 6.554 13.066 6.636 65.905-16.712 130.417-67.502 186.614-90.972 100.557-260.833 162.98-443.433 162.98-182.804 0-352.829-62.587-443.72-163.348-50.708-56.279-73.933-120.914-67.092-186.9 1.106-10.445 9.871-18.391 20.357-18.391v0z" />
<glyph unicode="&#xe929;" glyph-name="chicken" d="M884.105 820.101c7.987-7.987 7.987-20.972 0-28.959-4.014-4.014-9.257-6.021-14.5-6.021-5.202 0-10.445 2.007-14.459 6.021-59.31 59.31-162.693 59.351-222.003 0-8.028-7.987-20.972-7.987-28.959 0-8.028 7.987-8.028 20.972 0 28.959 37.356 37.396 87.081 57.999 139.96 57.999s102.564-20.603 139.96-57.999zM913.064 511.181c-82.821-82.821-301.138-186.245-420.086-161.833-0.492 0.123-0.778 0.532-1.229 0.614-22.979 4.833-40.1 13.107-52.388 25.436-12.288 12.247-20.562 29.368-25.395 52.347-0.082 0.451-0.492 0.696-0.614 1.147-24.412 118.989 79.012 337.306 161.833 420.168 45.138 45.138 105.103 70.001 168.96 70.001 63.816 0 123.781-24.863 168.919-70.001s70.001-105.103 70.001-168.919c0-63.857-24.863-123.822-70.001-168.96zM449.192 320.553l-136.724-136.765c-4.628-4.628-6.799-11.223-5.734-17.695 1.024-6.472 5.12-12.083 10.977-15.032 31.416-15.892 50.954-47.268 50.954-81.92 0-50.831-41.37-92.16-92.16-92.16-50.831 0-92.16 41.329-92.16 92.16 0 9.871 1.843 19.948 5.693 30.761 2.662 7.414 0.819 15.729-4.792 21.34-3.891 3.891-9.134 5.98-14.5 5.98-2.294 0-4.588-0.369-6.84-1.147-10.854-3.891-20.931-5.734-30.761-5.734-50.831 0-92.16 41.329-92.16 92.16 0 50.79 41.329 92.16 92.16 92.16 34.652 0 66.028-19.538 81.92-50.954 2.949-5.857 8.561-9.953 15.032-10.977 6.39-1.106 13.066 1.106 17.695 5.734l136.765 136.724c0.819-1.925 1.966-3.441 2.826-5.284 2.294-4.506 4.465-9.093 7.209-13.312 4.71-7.373 9.871-14.254 15.811-20.193 6.144-6.144 13.312-11.428 21.053-16.261 3.973-2.54 8.274-4.669 12.534-6.799 1.802-0.86 3.318-1.966 5.202-2.785zM942.023 878.019c-52.838 52.879-123.126 82.002-197.878 82.002-74.793 0-145.039-29.123-197.919-82.002-89.907-89.948-196.403-308.183-174.776-447.98l-134.676-134.676c-24.945 31.498-62.669 50.258-103.629 50.258-73.4 0-133.12-59.72-133.12-133.12 0-77.005 66.601-139.346 143.811-132.669-0.328-3.564-0.451-7.127-0.451-10.691 0-73.4 59.72-133.12 133.12-133.12s133.12 59.72 133.12 133.12c0 40.96-18.76 78.684-50.258 103.629l134.758 134.758c12.37-1.925 25.272-3.031 38.789-3.031 138.609 0 327.188 95.805 409.108 177.725 52.879 52.879 82.002 123.126 82.002 197.919 0 74.752-29.123 145.039-82.002 197.878z" />
<glyph unicode="&#xe92a;" glyph-name="cake" d="M102.408 17.92c-33.874 0-61.44 27.566-61.44 61.44 0 11.305 9.175 20.48 20.48 20.48h901.12c11.305 0 20.48-9.175 20.48-20.48 0-33.874-27.566-61.44-61.44-61.44h-819.2zM122.888 359.24l15.483-6.431c5.775-2.417 11.715-4.219 17.695-5.407 1.966-0.41 4.014-0.328 6.021-0.614 4.014-0.492 8.028-1.188 12.042-1.188 4.055 0 7.946 0.655 11.878 1.147 2.048 0.287 4.137 0.205 6.144 0.614 5.98 1.188 11.878 2.949 17.613 5.325l57.999 23.88c12.984 5.325 27.32 5.284 40.264-0.205l55.296-23.265c23.224-9.789 48.824-9.83 72.090-0.123l56.484 23.511c12.943 5.407 27.279 5.407 40.223 0l56.484-23.511c23.224-9.708 48.865-9.667 72.090 0.123l55.296 23.306c12.984 5.448 27.32 5.489 40.264 0.164l57.999-23.88c18.842-7.782 39.24-8.806 58.696-3.768 4.26 1.106 8.561 2.171 12.698 3.891l15.483 6.431v-218.44h-778.24v218.44zM81.928 570.88c0 11.305 9.175 20.48 20.48 20.48h819.2c11.305 0 20.48-9.175 20.48-20.48v-150.2l-72.172-30.024c-12.902-5.407-27.156-5.407-40.059-0.082l-57.999 23.88c-23.224 9.544-48.66 9.421-71.762-0.328l-55.255-23.265c-13.066-5.489-27.443-5.53-40.468-0.082l-56.484 23.511c-23.101 9.626-48.62 9.626-71.762 0l-56.484-23.511c-13.025-5.489-27.361-5.407-40.468 0.082l-55.255 23.265c-23.060 9.789-48.579 9.912-71.762 0.328l-57.999-23.88c-12.861-5.366-27.116-5.284-40.018 0.041l-72.212 30.065v150.2zM327.688 734.72c0-11.305-9.175-20.48-20.48-20.48s-20.48 9.175-20.48 20.48c0 16.998 10.445 35.963 20.48 49.971 10.035-14.008 20.48-32.973 20.48-49.971zM532.488 775.68c0-11.305-9.175-20.48-20.48-20.48s-20.48 9.175-20.48 20.48c0 17.736 10.076 47.35 20.48 72.868 10.854-26.829 20.48-56.115 20.48-72.868zM737.288 734.72c0-11.305-9.175-20.48-20.48-20.48s-20.48 9.175-20.48 20.48c0 16.998 10.445 35.963 20.48 49.971 10.035-14.008 20.48-32.973 20.48-49.971zM942.088 140.8v235.52l28.344 11.837c7.619 3.154 12.616 10.609 12.616 18.883v163.84c0 33.874-27.566 61.44-61.44 61.44h-184.32v44.728c23.798 8.479 40.96 31.007 40.96 57.672 0 48.046-42.148 91.587-46.94 96.42-8.028 7.987-20.972 7.987-29 0-4.792-4.833-46.94-48.374-46.94-96.42 0-26.665 17.162-49.193 40.96-57.672v-44.728h-163.84v85.688c23.798 8.479 40.96 31.007 40.96 57.672 0 44.483-38.707 123.208-43.131 132.055-6.963 13.844-29.655 13.844-36.618 0-4.424-8.847-43.131-87.572-43.131-132.055 0-26.665 17.162-49.193 40.96-57.672v-85.688h-163.84v44.728c23.798 8.479 40.96 31.007 40.96 57.672 0 48.046-42.148 91.587-46.94 96.42-8.028 7.987-20.972 7.987-29 0-4.792-4.833-46.94-48.374-46.94-96.42 0-26.665 17.162-49.193 40.96-57.672v-44.728h-184.32c-33.874 0-61.44-27.566-61.44-61.44v-163.84c0-8.274 4.997-15.729 12.616-18.883l28.344-11.837v-235.52h-20.48c-33.874 0-61.44-27.566-61.44-61.44 0-56.443 45.957-102.4 102.4-102.4h819.2c56.443 0 102.4 45.957 102.4 102.4 0 33.874-27.566 61.44-61.44 61.44h-20.48z" />
<glyph unicode="&#xe92b;" glyph-name="knife" d="M286.728 243.2c0-11.305-9.175-20.48-20.48-20.48s-20.48 9.175-20.48 20.48c0 11.305 9.175 20.48 20.48 20.48s20.48-9.175 20.48-20.48v0zM204.808 161.28c0-11.305-9.175-20.48-20.48-20.48s-20.48 9.175-20.48 20.48c0 11.305 9.175 20.48 20.48 20.48s20.48-9.175 20.48-20.48v0zM554.729 270.397l-177.562 177.603c380.887 379.208 527.811 458.22 605.102 469.484-16.138-232.694-279.306-529.859-427.54-647.086v0zM421.609 263.68h-32.481c-5.448 0-10.65-2.171-14.5-5.98l-163.84-163.84c-4.874-4.915-6.963-11.96-5.53-18.719 0.082-0.41 8.274-41.452-24.453-74.179-30.966-30.966-84.869-30.966-115.835 0-15.483 15.483-24.003 36.045-24.003 57.917s8.52 42.435 24.003 57.917l292.7 292.741 104.899-104.899-40.96-40.96zM1003.528 960c-89.498 0-232.612-60.293-669.86-497.5-6.226-6.267-7.455-15.442-3.932-23.020l-293.724-293.724c-23.224-23.183-36.004-54.067-36.004-86.876s12.78-63.693 36.004-86.876c23.183-23.224 54.067-36.004 86.876-36.004s63.693 12.78 86.876 36.004c36.209 36.209 38.42 79.462 37.028 99.901l150.815 150.815h32.481c5.448 0 10.65 2.171 14.5 5.98l46.94 46.981 46.94-46.981c3.973-3.973 9.257-5.98 14.5-5.98 4.301 0 8.602 1.352 12.288 4.096 159.99 119.972 458.752 452.198 458.752 712.704 0 11.305-9.175 20.48-20.48 20.48v0z" />
<glyph unicode="&#xe92c;" glyph-name="neck-tie" horiz-adv-x="451" d="M225.288-14.561l-73.441 73.441 226.181 226.181 29.368-117.514-182.108-182.108zM125.018 888.525c-4.014 9.052-1.761 17.859 1.679 23.142 1.761 2.744 5.734 7.373 12.083 7.373h173.015c6.349 0 10.322-4.628 12.083-7.373 3.441-5.284 5.693-14.090 1.679-23.142l-36.291-81.92c-2.867-6.431-8.151-10.445-13.763-10.445h-82.944l-17.162 0.123c-0.164 0-0.328-0.082-0.451-0.082-5.571 0.082-10.772 4.055-13.64 10.404l-36.291 81.92zM126.575 501.125l63.529 254.075h70.369l24.044-96.133-157.942-157.942zM107.241 423.875l188.867 188.867 29.368-117.514-267.182-267.182 48.947 195.83zM49.447 161.28l287.621 287.621 29.368-117.514-243.548-243.548-73.441 73.441zM300.941 762.327c10.936 6.021 20.275 15.36 25.764 27.689l36.291 81.92c8.929 20.070 7.086 43.827-4.751 62.054-10.772 16.548-27.689 26.010-46.449 26.010h-173.015c-18.76 0-35.676-9.462-46.449-26.010-11.837-18.227-13.681-41.984-4.751-62.054l36.291-81.92c5.489-12.329 14.828-21.668 25.764-27.689l-149.012-596.091c-0.123-0.573 0.123-1.106 0.041-1.679-0.41-2.376-0.369-4.628 0.082-7.004 0.123-0.86 0.205-1.72 0.492-2.58 0.983-2.99 2.417-5.816 4.751-8.192l204.8-204.8c4.014-3.973 9.257-5.98 14.5-5.98s10.486 2.007 14.5 5.98l204.8 204.8c5.079 5.079 7.127 12.493 5.366 19.456l-149.012 596.091z" />
<glyph unicode="&#xe92d;" glyph-name="lips" d="M767.169 369.279c-66.683-72.049-135.66-146.555-255.14-146.555-119.521 0-188.498 74.506-255.181 146.555-18.678 20.193-37.683 40.387-57.754 59.105 73.277-20.931 166.38-41.82 312.934-41.82 146.514 0 239.616 20.89 312.893 41.82-20.070-18.719-39.076-38.912-57.754-59.105zM174.395 566.706c46.776 52.429 95.15 106.578 173.793 106.578 137.994 0 143.196-92.037 143.36-102.4 0-11.305 9.134-20.48 20.48-20.48 11.305 0 20.48 9.175 20.48 20.48 0 4.178 1.597 102.4 143.36 102.4 78.602 0 126.976-54.149 173.752-106.578 21.996-24.617 44.401-49.725 69.837-68.362-20.685-5.038-41.533-11.387-63.693-18.104-77.332-23.47-173.507-52.716-343.736-52.716-170.271 0-266.445 29.245-343.777 52.716-22.159 6.717-43.008 13.066-63.693 18.104 25.436 18.637 47.841 43.745 69.837 68.362zM1003.549 509.444c-47.882 0-82.862 39.199-123.372 84.541-50.34 56.361-107.356 120.259-204.308 120.259-95.724 0-141.722-39.158-163.84-76.513-22.159 37.356-68.157 76.513-163.84 76.513-96.993 0-154.010-63.898-204.349-120.259-40.509-45.343-75.489-84.541-123.331-84.541-11.346 0-20.48-9.175-20.48-20.48s9.134-20.48 20.48-20.48c88.76 0 143.237-58.86 206.275-127.017 69.304-74.875 147.825-159.703 285.245-159.703 137.38 0 215.9 84.828 285.204 159.703 63.037 68.157 117.514 127.017 206.316 127.017 11.305 0 20.48 9.175 20.48 20.48s-9.175 20.48-20.48 20.48z" />
<glyph unicode="&#xe92e;" glyph-name="bowtie" d="M948.646 265.478c-37.11-3.441-164.168-8.315-282.419 68.035 3.604 5.366 6.513 11.346 9.421 17.326 1.802 3.564 3.604 7.127 5.12 10.895 0.451 1.024 1.024 1.925 1.434 2.99l113.172-18.842c1.147-0.205 2.253-0.287 3.359-0.287 9.871 0 18.514 7.086 20.193 17.121 1.843 11.141-5.693 21.709-16.835 23.552l-109.158 18.186c0.287 1.925 0.41 4.055 0.655 6.021 1.679 11.919 2.744 24.289 2.744 37.519s-1.065 25.6-2.744 37.56c-0.246 1.925-0.369 4.055-0.655 5.98l109.158 18.186c11.141 1.843 18.678 12.411 16.835 23.552s-12.37 18.883-23.552 16.835l-113.172-18.842c-0.41 1.065-0.983 1.966-1.434 2.99-1.516 3.768-3.318 7.332-5.12 10.895-2.908 5.98-5.816 11.96-9.421 17.326 118.006 76.063 245.391 71.393 282.46 68.035 10.158-24.166 34.365-91.382 34.365-182.518 0-90.685-24.289-158.31-34.406-182.518zM404.083 340.23c-0.614 0.901-0.901 1.966-1.638 2.744-22.405 24.044-33.792 59.392-33.792 105.021s11.387 80.978 33.792 105.021c0.737 0.819 1.024 1.843 1.638 2.744 23.798 23.839 59.638 35.594 107.93 35.594s84.132-11.756 107.93-35.594c0.573-0.901 0.901-1.925 1.638-2.744 22.405-24.044 33.792-59.392 33.792-105.021s-11.387-80.978-33.792-105.021c-0.737-0.778-1.065-1.843-1.638-2.744-23.798-23.839-59.638-35.594-107.93-35.594s-84.132 11.756-107.93 35.594zM75.338 265.478c-10.158 24.166-34.365 91.382-34.365 182.518 0 90.685 24.289 158.31 34.406 182.518 37.151 3.4 164.168 8.315 282.378-68.035-3.564-5.366-6.472-11.346-9.421-17.326-1.761-3.564-3.564-7.127-5.12-10.895-0.41-1.024-1.024-1.925-1.393-2.99l-113.172 18.842c-11.223 2.089-21.709-5.652-23.552-16.835-1.884-11.141 5.652-21.709 16.835-23.552l109.158-18.186c-0.287-1.925-0.41-4.055-0.696-5.98-1.638-11.96-2.703-24.33-2.703-37.56s1.065-25.6 2.703-37.519c0.287-1.966 0.41-4.096 0.696-6.021l-109.158-18.186c-11.182-1.843-18.719-12.411-16.835-23.552 1.638-10.035 10.322-17.121 20.152-17.121 1.147 0 2.253 0.082 3.4 0.287l113.172 18.842c0.369-1.065 0.983-1.966 1.393-2.99 1.556-3.768 3.359-7.332 5.12-10.895 2.949-5.98 5.857-11.96 9.421-17.326-117.965-76.104-245.268-71.475-282.419-68.035zM980.84 658.817c-2.99 5.816-8.561 9.871-15.032 10.936-7.209 1.147-173.384 25.887-327.352-76.923-30.761 25.518-72.868 39.485-126.444 39.485-53.617 0-95.683-13.967-126.444-39.485-153.969 102.81-320.143 78.070-327.352 76.923-6.472-1.065-12.083-5.12-15.032-10.936-1.761-3.482-43.172-86.426-43.172-210.821s41.411-207.299 43.172-210.78c2.949-5.857 8.561-9.912 15.032-10.977 2.417-0.369 23.101-3.523 55.337-3.523 62.956 0 170.025 12.657 271.811 80.609 30.802-25.641 72.95-39.649 126.648-39.649s95.846 14.008 126.607 39.649c101.827-67.953 208.855-80.609 271.852-80.609 32.236 0 52.879 3.154 55.337 3.523 6.472 1.065 12.042 5.12 15.032 10.977 1.761 3.482 43.172 86.385 43.172 210.78s-41.411 207.34-43.172 210.821z" />
<glyph unicode="&#xe92f;" glyph-name="molecule" horiz-adv-x="942" d="M860.168 263.68c-22.569 0-40.96 18.35-40.96 40.96 0 5.489 1.147 10.691 3.113 15.442 0.123 0.287 0.41 0.369 0.532 0.655 0.123 0.205 0.082 0.451 0.164 0.696 6.431 14.172 20.603 24.166 37.151 24.166 22.569 0 40.96-18.35 40.96-40.96s-18.391-40.96-40.96-40.96zM430.088 345.6c-79.053 0-143.36 64.307-143.36 143.36s64.307 143.36 143.36 143.36c79.053 0 143.36-64.307 143.36-143.36 0-19.538-3.973-38.175-11.1-55.132-0.205-0.41-0.573-0.655-0.778-1.106-0.082-0.287-0.082-0.614-0.164-0.942-22.159-50.627-72.622-86.18-131.318-86.18zM40.968 837.12c0 45.179 36.741 81.92 81.92 81.92s81.92-36.741 81.92-81.92c0-45.179-36.741-81.92-81.92-81.92s-81.92 36.741-81.92 81.92zM716.808 837.12c33.874 0 61.44-27.566 61.44-61.44s-27.566-61.44-61.44-61.44c-16.712 0-31.785 6.717-42.885 17.572-0.164 0.205-0.205 0.41-0.41 0.573-0.164 0.164-0.369 0.246-0.573 0.41-10.813 11.1-17.572 26.214-17.572 42.885 0 33.874 27.566 61.44 61.44 61.44zM573.448 38.4c0-33.874-27.566-61.44-61.44-61.44s-61.44 27.566-61.44 61.44c0 33.874 27.566 61.44 61.44 61.44s61.44-27.566 61.44-61.44zM122.888 345.6c-22.569 0-40.96 18.35-40.96 40.96s18.391 40.96 40.96 40.96c17.859 0 32.686-11.633 38.257-27.648 0.082-0.205 0.041-0.41 0.082-0.573 0.041-0.041 0.082-0.041 0.082-0.082 1.311-4.055 2.54-8.192 2.54-12.657 0-22.61-18.391-40.96-40.96-40.96zM860.168 386.56c-26.255 0-49.398-12.657-64.43-31.908l-189.972 81.428c5.079 16.835 8.643 34.365 8.643 52.879 0 43.459-15.729 82.862-40.96 114.401l86.999 86.958c16.179-10.732 35.512-17.039 56.361-17.039 56.443 0 102.4 45.916 102.4 102.4s-45.957 102.4-102.4 102.4c-56.443 0-102.4-45.916-102.4-102.4 0-20.849 6.308-40.182 17.080-56.402l-86.999-86.958c-31.539 25.231-70.943 40.96-114.401 40.96-39.24 0-75.53-12.575-105.472-33.546l-106.619 120.545c17.080 21.135 27.771 47.636 27.771 76.841 0 67.748-55.132 122.88-122.88 122.88s-122.88-55.132-122.88-122.88c0-67.748 55.132-122.88 122.88-122.88 23.757 0 45.752 7.086 64.553 18.801l106.701-120.668c-29.737-32.727-48.374-75.776-48.374-123.412 0-13.148 1.516-25.969 4.137-38.38l-58.409-19.579c-14.623 22.528-39.854 37.478-68.608 37.478-45.179 0-81.92-36.741-81.92-81.92s36.741-81.92 81.92-81.92c45.179 0 81.92 36.741 81.92 81.92 0 1.925-0.451 3.686-0.573 5.571l58.982 19.743c29.286-63.119 92.815-107.233 166.871-107.233 4.342 0 8.397 0.983 12.657 1.27l31.13-172.646c-37.601-15.155-64.266-51.855-64.266-94.863 0-56.484 45.957-102.4 102.4-102.4s102.4 45.916 102.4 102.4c0 55.706-44.769 100.966-100.188 102.154l-31.171 172.769c45.588 13.804 83.436 44.442 106.578 85.074l189.891-81.347c-0.655-4.096-1.27-8.151-1.27-12.411 0-45.179 36.741-81.92 81.92-81.92s81.92 36.741 81.92 81.92c0 45.179-36.741 81.92-81.92 81.92z" />
<glyph unicode="&#xe930;" glyph-name="chef-hat" horiz-adv-x="860" d="M573.448 529.92v-122.88c0-11.305-9.175-20.48-20.48-20.48s-20.48 9.175-20.48 20.48v122.88c0 11.305 9.175 20.48 20.48 20.48s20.48-9.175 20.48-20.48zM327.688 529.92v-122.88c0-11.305-9.175-20.48-20.48-20.48s-20.48 9.175-20.48 20.48v122.88c0 11.305 9.175 20.48 20.48 20.48s20.48-9.175 20.48-20.48zM450.568 570.88v-204.8c0-11.305-9.175-20.48-20.48-20.48s-20.48 9.175-20.48 20.48v204.8c0 11.305 9.175 20.48 20.48 20.48s20.48-9.175 20.48-20.48zM762.929 580.669c-41.656-31.703-68.239-72.376-76.8-117.637-16.507-87.122-24.125-190.915-27.689-281.272h-456.704c-3.564 90.399-11.182 194.191-27.689 281.272-8.561 45.261-35.144 85.934-76.8 117.637-43.95 33.423-64.348 88.351-53.207 143.237 9.544 46.981 44.196 86.794 90.481 103.956 16.671 6.185 33.341 9.298 49.889 9.298 21.012 0 41.779-4.997 62.218-14.95 9.544-4.628 20.972-1.27 26.46 7.782 33.956 55.788 92.652 89.047 157 89.047s123.044-33.26 157-89.047c5.489-9.052 16.957-12.411 26.46-7.782 36.536 17.818 74.26 19.702 112.108 5.652 46.285-17.162 80.937-56.975 90.481-103.956v0c11.141-54.886-9.257-109.814-53.207-143.237zM634.888-23.040h-409.6c-16.507 0-20.234 11.264-20.48 20.48 0 31.539 0 82.903-1.72 143.36h454.001c-1.72-60.375-1.72-111.698-1.72-143.114-0.246-9.462-3.973-20.726-20.48-20.726zM856.277 732.058v0c-12.329 60.744-56.893 112.189-116.408 134.226-42.394 15.729-86.221 15.647-127.672-0.082-42.435 59.064-109.281 93.798-182.108 93.798s-139.674-34.734-182.108-93.798c-41.492 15.729-85.32 15.811-127.672 0.082-59.515-22.036-104.079-73.482-116.408-134.226-14.254-70.451 12.001-140.943 68.567-183.992 23.306-17.777 52.92-48.251 61.358-92.652 30.024-158.392 30.024-376.054 30.024-457.974 0-24.699 16.343-61.44 61.44-61.44h409.6c45.097 0 61.44 36.741 61.44 61.44 0 81.92 0 299.581 30.024 457.974 8.438 44.401 38.052 74.875 61.358 92.652 56.566 43.049 82.821 113.541 68.567 183.992z" />
<glyph unicode="&#xe931;" glyph-name="oven-mit" d="M845.406 490.078l-392.724-404.357-309.985 309.985 1.27 1.352c86.18 88.719 129.638 177.848 172.278 353.362 22.856 94.249 69.222 126.853 97.485 126.853 1.393 0 2.744-0.082 4.055-0.246 15.933-1.925 25.108-14.95 25.108-35.799 0-55.788 26.624-75.121 42.476-81.674 33.26-13.844 78.479 1.966 117.76 41.247 50.708 50.749 126.689 118.211 201.155 118.211h0.082c36.864 0 70.861-16.097 103.875-49.234 98.181-98.468 119.357-192.143-62.833-379.699v0zM353.231-16.638c-8.028-8.274-22.282-8.233-30.269 0l-275.988 284.099c-7.946 8.233-7.946 21.545 0.041 29.778l67.133 69.1 309.985-309.985-70.902-72.991zM937.239 898.695c-40.509 40.632-85.197 61.276-132.874 61.276h-0.041c-89.702 0-174.326-74.301-230.195-130.212-30.351-30.474-59.269-38.216-73.114-32.399-14.909 6.185-17.162 30.147-17.162 43.868 0 41.37-24.617 72.090-61.194 76.431-51.077 6.267-117.883-40.673-146.227-157.573-40.673-167.404-81.469-251.781-161.833-334.52l-14.868-15.278c-0.123-0.082-0.246-0.123-0.328-0.246-0.123-0.123-0.164-0.246-0.287-0.369l-81.469-83.927c-23.716-24.33-23.716-62.464-0.041-86.794l275.988-284.14c11.756-12.124 27.607-18.801 44.483-18.801 16.916 0 32.727 6.676 44.524 18.842l492.175 506.675c204.104 210.084 172.605 326.697 62.464 437.166v0z" />
<glyph unicode="&#xe932;" glyph-name="pie-chart" d="M632.865 567.841l122.921 344.187c100.516-41.615 179.692-120.791 221.266-221.266l-344.187-122.921zM1022.968 685.396c-45.548 127.59-144.876 226.959-272.507 272.548-5.12 1.843-10.772 1.556-15.647-0.737-4.915-2.335-8.724-6.513-10.527-11.633l-144.507-404.685c-2.662-7.455-0.819-15.77 4.792-21.381 3.891-3.891 9.134-5.98 14.459-5.98 2.335 0 4.669 0.41 6.881 1.188l404.685 144.507c5.12 1.843 9.298 5.612 11.592 10.527 2.376 4.915 2.621 10.527 0.778 15.647v0zM450.552-23.048c-225.853 0-409.6 183.788-409.6 409.6 0 225.853 183.747 409.6 409.6 409.6 39.649 0 79.34-5.98 118.211-17.777l-137.462-384.942c-2.662-7.414-0.819-15.77 4.792-21.34 5.571-5.652 13.967-7.496 21.34-4.792l384.942 137.462c11.796-38.871 17.777-78.52 17.777-118.211 0-225.812-183.747-409.6-409.6-409.6v0zM848.355 550.351l-363.971-129.966 129.966 363.93c3.85 10.65-1.72 22.364-12.37 26.173-49.48 17.654-100.434 26.624-151.429 26.624-248.422 0-450.56-202.097-450.56-450.56 0-248.422 202.138-450.56 450.56-450.56 248.463 0 450.56 202.138 450.56 450.56 0 51.036-8.929 101.949-26.624 151.429-3.768 10.65-15.565 16.179-26.132 12.37v0z" />
<glyph unicode="&#xe933;" glyph-name="piggy-bank" d="M327.688 529.92c0 11.264-9.175 20.48-20.48 20.48s-20.48-9.216-20.48-20.48c0-11.264 9.175-20.48 20.48-20.48s20.48 9.216 20.48 20.48zM368.648 529.92c0-33.874-27.566-61.44-61.44-61.44s-61.44 27.566-61.44 61.44c0 33.874 27.566 61.44 61.44 61.44s61.44-27.566 61.44-61.44zM983.048 448c0 191.98-192.922 348.16-430.080 348.16-54.682 0-108.503-8.479-159.949-25.231-6.513-2.048-13.476-0.86-18.842 3.277-44.646 34.447-95.969 54.886-152.904 60.989 14.131-26.010 32.891-65.004 46.776-109.978 2.54-8.274-0.369-17.203-7.25-22.405-64.143-48.292-108.093-109.978-127.099-178.381-2.458-8.888-10.527-14.991-19.743-14.991h-52.511c-11.305 0-20.48-9.216-20.48-20.48v-122.88c0-11.264 9.175-20.48 20.48-20.48h67.133c8.151 0 15.565-4.833 18.801-12.37 19.784-45.629 50.504-86.753 91.341-122.225 4.465-3.932 7.045-9.585 7.045-15.483v-116.163c0-11.264 9.175-20.48 20.48-20.48h81.92c11.305 0 20.48 9.216 20.48 20.48v25.518c0 6.554 3.113 12.698 8.397 16.548 5.325 3.809 12.124 4.874 18.309 2.99 88.064-28.303 183.091-32.399 275.866-10.854 1.516 0.369 3.072 0.532 4.628 0.532 4.588 0 9.093-1.516 12.739-4.465 4.915-3.85 7.741-9.789 7.741-16.015v-14.254c0-11.264 9.175-20.48 20.48-20.48h81.92c11.305 0 20.48 9.216 20.48 20.48v84.296c0 6.799 3.4 13.148 9.011 16.957 98.386 66.478 154.829 163.963 154.829 267.387zM944.136 664.474c50.381-61.932 79.872-136.397 79.872-216.474 0-114.033-59.556-221.020-163.84-295.076v-73.564c0-33.874-27.566-61.44-61.44-61.44h-81.92c-30.188 0-55.378 21.914-60.498 50.668-83.067-15.647-167.199-12.165-246.702 8.97-0.983-33.055-28.18-59.638-61.44-59.638h-81.92c-33.874 0-61.44 27.566-61.44 61.44v106.947c-38.42 34.857-68.444 74.588-89.416 118.333h-53.944c-33.874 0-61.44 27.566-61.44 61.44v122.88c0 33.874 27.566 61.44 61.44 61.44h37.356c21.996 66.97 65.085 127.345 125.747 176.128-23.060 67.707-56.934 119.194-57.303 119.767-4.178 6.267-4.506 14.336-0.942 20.972 3.523 6.636 10.486 10.813 18.022 10.813 77.373 0 146.678-21.832 206.234-65.004 52.388 15.974 106.988 24.044 162.406 24.044 146.309 0 277.217-55.419 363.684-142.131 32.85 23.101 66.396 61.399 66.396 121.651 0 11.305 9.175 20.48 20.48 20.48s20.48-9.175 20.48-20.48c0-60.948-28.262-114.156-79.872-152.166zM696.246 668.897c-2.703-8.806-10.813-14.459-19.579-14.459-2.007 0-4.014 0.287-6.021 0.942-77.128 23.757-158.228 23.757-235.356 0-10.813-3.482-22.282 2.662-25.6 13.517-3.318 10.772 2.744 22.282 13.558 25.6 84.951 26.214 174.49 26.214 259.441 0 10.813-3.318 16.876-14.828 13.558-25.6z" />
<glyph unicode="&#xe934;" glyph-name="pill" d="M798.728 263.68h-266.24v368.64h266.24c101.622 0 184.32-82.698 184.32-184.32s-82.698-184.32-184.32-184.32zM266.248 550.4h-40.96c-56.443 0-102.4-45.957-102.4-102.4 0-11.305-9.175-20.48-20.48-20.48s-20.48 9.175-20.48 20.48c0 79.053 64.307 143.36 143.36 143.36h40.96c11.305 0 20.48-9.175 20.48-20.48s-9.175-20.48-20.48-20.48zM798.728 673.28h-573.44c-14.746 0-29.123-1.516-43.090-4.26-0.451-0.041-0.942-0.082-1.393-0.205-14.131-2.826-27.689-7.045-40.755-12.411-0.328-0.123-0.696-0.205-1.024-0.369-54.927-22.856-98.918-66.847-121.774-121.774-0.164-0.328-0.246-0.696-0.369-1.024-5.366-13.066-9.585-26.624-12.411-40.755-0.123-0.451-0.164-0.942-0.205-1.393-2.744-13.967-4.26-28.344-4.26-43.090 0-124.232 101.048-225.28 225.28-225.28h573.44c124.232 0 225.28 101.048 225.28 225.28s-101.048 225.28-225.28 225.28z" />
<glyph unicode="&#xe935;" glyph-name="playing-card" horiz-adv-x="778" d="M693.907 170.959c3.564-6.676 3.154-14.746-1.024-21.053l-81.92-122.88c-3.932-5.898-10.445-9.093-17.039-9.093-3.932 0-7.864 1.106-11.346 3.441-9.421 6.267-11.96 19.005-5.693 28.385l60.703 91.054h-43.663c-11.305 0-20.48 9.134-20.48 20.48 0 11.305 9.175 20.48 20.48 20.48h81.92c7.578 0 14.5-4.178 18.063-10.813v0zM201.363 846.225l-81.92-122.88c-3.932-5.898-10.445-9.093-17.039-9.093-3.932 0-7.864 1.106-11.346 3.441-9.421 6.267-11.96 19.005-5.693 28.385l60.703 91.054h-43.663c-11.305 0-20.48 9.134-20.48 20.48 0 11.305 9.175 20.48 20.48 20.48h81.92c7.578 0 14.5-4.178 18.063-10.813 3.564-6.676 3.154-14.746-1.024-21.053v0zM389.124 265.535c-35.963 16.548-184.32 95.683-184.32 274.637 0 50.79 41.329 92.16 92.16 92.16 29.901 0 58.081-14.787 75.407-39.444 7.619-10.977 25.887-10.977 33.505 0 17.326 24.658 45.507 39.444 75.407 39.444 50.831 0 92.16-41.37 92.16-92.16 0-178.954-148.316-258.089-184.32-274.637v0zM481.284 673.292c-34.57 0-67.543-13.599-92.16-37.274-24.617 23.675-57.59 37.274-92.16 37.274-73.4 0-133.12-59.72-133.12-133.12 0-227.656 215.613-315.187 217.784-316.006 2.417-0.983 4.956-1.434 7.496-1.434s5.12 0.451 7.496 1.434c2.171 0.819 217.784 88.351 217.784 316.006 0 73.4-59.72 133.12-133.12 133.12v0zM737.284-2.548c0-11.305-9.175-20.48-20.48-20.48h-655.36c-11.305 0-20.48 9.175-20.48 20.48v901.12c0 11.264 9.175 20.48 20.48 20.48h655.36c11.305 0 20.48-9.216 20.48-20.48v-901.12zM716.804 960.012h-655.36c-33.874 0-61.44-27.566-61.44-61.44v-901.12c0-33.874 27.566-61.44 61.44-61.44h655.36c33.874 0 61.44 27.566 61.44 61.44v901.12c0 33.874-27.566 61.44-61.44 61.44v0z" />
<glyph unicode="&#xe936;" glyph-name="radar" d="M717.525 560.259l231.506 154.378c8.684-14.295 16.425-28.385 23.388-42.516l-254.894-111.862zM511.988 386.548c-33.874 0-61.44 27.566-61.44 61.44s27.566 61.44 61.44 61.44c33.915 0 61.44-27.566 61.44-61.44s-27.525-61.44-61.44-61.44v0zM1018.581 670.114c-12.534 28.221-27.648 55.788-46.244 84.378-2.99 4.588-7.66 7.782-13.025 8.888-5.325 1.065-10.936 0-15.483-3.031l-17.981-11.96c-96.625 132.506-249.487 211.599-413.86 211.599-282.296 0-512-229.663-512-512 0-282.296 229.704-512 512-512 243.343 0 454.533 172.974 502.211 411.32 2.212 11.1-4.997 21.873-16.056 24.125-11.059 2.335-21.914-4.956-24.125-16.056-43.868-219.259-238.141-378.429-462.029-378.429-259.727 0-471.040 211.313-471.040 471.040 0 259.768 211.313 471.040 471.040 471.040 150.651 0 290.734-72.253 379.781-193.372l-68.362-45.548c-73.196 98.345-187.802 157-311.419 157-214.548 0-389.12-174.531-389.12-389.12 0-214.548 174.572-389.12 389.12-389.12 184.73 0 345.293 131.482 381.788 312.607 2.212 11.059-4.956 21.873-16.056 24.084-11.018 2.294-21.914-4.915-24.125-16.015-32.645-162.079-176.292-279.716-341.606-279.716-191.98 0-348.16 156.18-348.16 348.16s156.18 348.16 348.16 348.16c109.937 0 211.804-51.773 277.381-138.732l-68.198-45.507c-50.135 64.225-126.689 102.318-209.183 102.318-146.801 0-266.24-119.439-266.24-266.24s119.439-266.24 266.24-266.24c126.894 0 236.626 89.989 260.956 213.975 2.171 11.1-5.079 21.873-16.179 24.044-11.059 2.253-21.873-5.038-24.003-16.179-20.603-104.776-113.418-180.879-220.774-180.879-124.191 0-225.28 101.089-225.28 225.28 0 124.232 101.089 225.28 225.28 225.28 68.772 0 132.669-31.212 175.104-84.050l-102.932-68.649c-18.514 18.391-44.032 29.819-72.172 29.819-56.443 0-102.4-45.916-102.4-102.4 0-56.443 45.957-102.4 102.4-102.4 56.484 0 102.4 45.957 102.4 102.4 0 7.291-0.819 14.377-2.253 21.258l395.96 173.793c4.956 2.212 8.888 6.308 10.854 11.387 1.966 5.038 1.802 10.732-0.369 15.688v0z" />
<glyph unicode="&#xe937;" glyph-name="radio" d="M778.248 243.2c0-11.305-9.175-20.48-20.48-20.48s-20.48 9.175-20.48 20.48c0 11.305 9.175 20.48 20.48 20.48s20.48-9.175 20.48-20.48v0zM860.168 243.2c0-11.305-9.175-20.48-20.48-20.48s-20.48 9.175-20.48 20.48c0 11.305 9.175 20.48 20.48 20.48s20.48-9.175 20.48-20.48v0zM696.328 243.2c0-11.305-9.175-20.48-20.48-20.48s-20.48 9.175-20.48 20.48c0 11.305 9.175 20.48 20.48 20.48s20.48-9.175 20.48-20.48v0zM901.128 161.28c0-11.305-9.175-20.48-20.48-20.48s-20.48 9.175-20.48 20.48c0 11.305 9.175 20.48 20.48 20.48s20.48-9.175 20.48-20.48v0zM737.288 161.28c0-11.305-9.175-20.48-20.48-20.48s-20.48 9.175-20.48 20.48c0 11.305 9.175 20.48 20.48 20.48s20.48-9.175 20.48-20.48v0zM819.208 161.28c0-11.305-9.175-20.48-20.48-20.48s-20.48 9.175-20.48 20.48c0 11.305 9.175 20.48 20.48 20.48s20.48-9.175 20.48-20.48v0zM655.368 161.28c0-11.305-9.175-20.48-20.48-20.48s-20.48 9.175-20.48 20.48c0 11.305 9.175 20.48 20.48 20.48s20.48-9.175 20.48-20.48v0zM901.128 325.12c0-11.305-9.175-20.48-20.48-20.48s-20.48 9.175-20.48 20.48c0 11.305 9.175 20.48 20.48 20.48s20.48-9.175 20.48-20.48v0zM737.288 325.12c0-11.305-9.175-20.48-20.48-20.48s-20.48 9.175-20.48 20.48c0 11.305 9.175 20.48 20.48 20.48s20.48-9.175 20.48-20.48v0zM819.208 325.12c0-11.305-9.175-20.48-20.48-20.48s-20.48 9.175-20.48 20.48c0 11.305 9.175 20.48 20.48 20.48s20.48-9.175 20.48-20.48v0zM614.408 325.12c0 11.305 9.175 20.48 20.48 20.48s20.48-9.175 20.48-20.48c0-11.305-9.175-20.48-20.48-20.48s-20.48 9.175-20.48 20.48v0zM737.288 407.040c0 11.305 9.175 20.48 20.48 20.48s20.48-9.175 20.48-20.48c0-11.305-9.175-20.48-20.48-20.48s-20.48 9.175-20.48 20.48v0zM819.208 407.040c0 11.305 9.175 20.48 20.48 20.48s20.48-9.175 20.48-20.48c0-11.305-9.175-20.48-20.48-20.48s-20.48 9.175-20.48 20.48v0zM655.368 407.040c0 11.305 9.175 20.48 20.48 20.48s20.48-9.175 20.48-20.48c0-11.305-9.175-20.48-20.48-20.48s-20.48 9.175-20.48 20.48v0zM901.128 488.96c0-11.305-9.175-20.48-20.48-20.48s-20.48 9.175-20.48 20.48c0 11.305 9.175 20.48 20.48 20.48s20.48-9.175 20.48-20.48v0zM696.328 488.96c0 11.305 9.175 20.48 20.48 20.48s20.48-9.175 20.48-20.48c0-11.305-9.175-20.48-20.48-20.48s-20.48 9.175-20.48 20.48v0zM778.248 488.96c0 11.305 9.175 20.48 20.48 20.48s20.48-9.175 20.48-20.48c0-11.305-9.175-20.48-20.48-20.48s-20.48 9.175-20.48 20.48v0zM614.408 488.96c0 11.305 9.175 20.48 20.48 20.48s20.48-9.175 20.48-20.48c0-11.305-9.175-20.48-20.48-20.48s-20.48 9.175-20.48 20.48v0zM348.168 222.72c-56.443 0-102.4 45.916-102.4 102.4s45.957 102.4 102.4 102.4c56.443 0 102.4-45.916 102.4-102.4s-45.957-102.4-102.4-102.4v0zM348.168 468.48c-79.053 0-143.36-64.307-143.36-143.36s64.307-143.36 143.36-143.36c79.053 0 143.36 64.307 143.36 143.36s-64.307 143.36-143.36 143.36v0zM348.168 140.8c-101.622 0-184.32 82.698-184.32 184.32s82.698 184.32 184.32 184.32c101.622 0 184.32-82.698 184.32-184.32s-82.698-184.32-184.32-184.32v0zM348.168 550.4c-124.232 0-225.28-101.089-225.28-225.28s101.048-225.28 225.28-225.28c124.232 0 225.28 101.089 225.28 225.28s-101.048 225.28-225.28 225.28v0zM983.048 38.4c0-11.264-9.175-20.48-20.48-20.48h-901.12c-11.305 0-20.48 9.216-20.48 20.48v573.44c0 11.264 9.175 20.48 20.48 20.48h901.12c11.305 0 20.48-9.216 20.48-20.48v-573.44zM204.808 796.16c-22.569 0-40.96 18.35-40.96 40.96s18.391 40.96 40.96 40.96c22.569 0 40.96-18.35 40.96-40.96s-18.391-40.96-40.96-40.96v0zM962.568 673.28h-79.176l-596.746 162.898c0 0.287 0.082 0.614 0.082 0.942 0 45.179-36.741 81.92-81.92 81.92s-81.92-36.741-81.92-81.92c0-45.179 36.741-81.92 81.92-81.92 30.392 0 56.689 16.835 70.82 41.492l452.198-123.412h-666.378c-33.874 0-61.44-27.566-61.44-61.44v-573.44c0-33.874 27.566-61.44 61.44-61.44h901.12c33.874 0 61.44 27.566 61.44 61.44v573.44c0 33.874-27.566 61.44-61.44 61.44v0z" />
<glyph unicode="&#xe938;" glyph-name="receipt" horiz-adv-x="696" d="M532.488 284.16c0-11.305-9.175-20.48-20.48-20.48h-327.68c-11.305 0-20.48 9.175-20.48 20.48s9.175 20.48 20.48 20.48h327.68c11.305 0 20.48-9.175 20.48-20.48v0zM409.608 202.24c0-11.305-9.175-20.48-20.48-20.48h-204.8c-11.305 0-20.48 9.175-20.48 20.48s9.175 20.48 20.48 20.48h204.8c11.305 0 20.48-9.175 20.48-20.48v0zM286.728 611.84c0 23.962 12.329 36.086 40.96 39.69v-73.277c-23.511 7.946-40.96 17.244-40.96 33.587v0zM409.608 488.96c0-23.962-12.329-36.086-40.96-39.69v73.277c23.511-7.946 40.96-17.244 40.96-33.587v0zM286.728 488.96c0 11.305-9.175 20.48-20.48 20.48s-20.48-9.175-20.48-20.48c0-28.017 11.837-72.827 81.92-80.364v-1.556c0-11.305 9.175-20.48 20.48-20.48s20.48 9.175 20.48 20.48v1.556c70.083 7.537 81.92 52.347 81.92 80.364 0 49.684-49.029 66.724-81.92 76.636v85.934c28.631-3.604 40.96-15.729 40.96-39.69 0-11.305 9.175-20.48 20.48-20.48s20.48 9.175 20.48 20.48c0 28.017-11.837 72.827-81.92 80.364v1.556c0 11.305-9.175 20.48-20.48 20.48s-20.48-9.175-20.48-20.48v-1.556c-70.083-7.537-81.92-52.347-81.92-80.364 0-49.684 49.029-66.724 81.92-76.636v-85.934c-28.631 3.604-40.96 15.729-40.96 39.69v0zM655.368 10.342l-73.441 82.616c-3.891 4.342-9.421 6.881-15.319 6.881-5.816 0-11.387-2.54-15.278-6.881l-93.921-105.636-93.921 105.636c-3.891 4.342-9.462 6.881-15.319 6.881s-11.428-2.54-15.319-6.881l-93.921-105.636-93.921 105.636c-7.782 8.765-22.897 8.724-30.597 0l-73.441-82.616v875.315l73.441-82.616c3.891-4.342 9.421-6.881 15.319-6.881 5.816 0 11.387 2.54 15.278 6.881l93.921 105.636 93.921-105.636c7.782-8.724 22.856-8.724 30.638 0l93.921 105.636 93.921-105.636c7.741-8.724 22.815-8.684 30.597 0l73.441 82.616v-875.315zM683.139 958.689c-8.028 2.949-16.916 0.819-22.61-5.571l-93.921-105.636-93.921 105.636c-7.782 8.724-22.897 8.724-30.597 0l-93.921-105.636-93.921 105.636c-3.891 4.342-9.421 6.881-15.319 6.881-5.816 0-11.387-2.54-15.278-6.881l-93.921-105.636-93.921 105.636c-5.652 6.349-14.582 8.52-22.61 5.571-7.946-3.031-13.189-10.65-13.189-19.169v-983.040c0-8.52 5.243-16.138 13.189-19.169 7.987-2.908 16.957-0.819 22.61 5.571l93.921 105.636 93.921-105.636c7.741-8.684 22.815-8.684 30.597 0l93.921 105.636 93.921-105.636c3.891-4.342 9.421-6.881 15.319-6.881 5.816 0 11.387 2.54 15.278 6.881l93.921 105.636 93.921-105.636c3.973-4.465 9.585-6.881 15.319-6.881 2.458 0 4.915 0.451 7.291 1.311 7.946 3.031 13.189 10.65 13.189 19.169v983.040c0 8.52-5.243 16.138-13.189 19.169v0z" />
<glyph unicode="&#xe939;" glyph-name="ring" horiz-adv-x="778" d="M389.128-23.040c-191.98 0-348.16 156.18-348.16 348.16s156.18 348.16 348.16 348.16c191.98 0 348.16-156.18 348.16-348.16s-156.18-348.16-348.16-348.16v0zM315.687 919.040h146.883l61.44-61.44-134.881-134.881-134.881 134.881 61.44 61.44zM435.536 711.209l131.932 131.891c7.987 8.028 7.987 20.972 0 29l-81.92 81.92c-3.85 3.809-9.052 5.98-14.5 5.98h-163.84c-5.448 0-10.65-2.171-14.5-5.98l-81.92-81.92c-7.987-8.028-7.987-20.972 0-29l131.932-131.891c-192.717-23.060-342.712-187.269-342.712-386.089 0-214.548 174.572-389.12 389.12-389.12s389.12 174.572 389.12 389.12c0 198.82-149.996 363.028-342.712 386.089v0z" />
</font>
</defs>
</svg>
